ISO-10303-21;
HEADER;
FILE_DESCRIPTION(('FreeCAD Model'),'2;1');
FILE_NAME('Open CASCADE Shape Model','2026-08-24T21:29:03',('Author'),(
    ''),'Open CASCADE STEP processor 7.8','FreeCAD','Unknown');
FILE_SCHEMA(('AUTOMOTIVE_DESIGN { 1 0 10303 214 1 1 1 1 }'));
ENDSEC;
DATA;
#1 = APPLICATION_PROTOCOL_DEFINITION('international standard',
  'automotive_design',2000,#2);
#2 = APPLICATION_CONTEXT(
  'core data for automotive mechanical design processes');
#3 = SHAPE_DEFINITION_REPRESENTATION(#4,#10);
#4 = PRODUCT_DEFINITION_SHAPE('','',#5);
#5 = PRODUCT_DEFINITION('design','',#6,#9);
#6 = PRODUCT_DEFINITION_FORMATION('','',#7);
#7 = PRODUCT('main bracket','main bracket','',(#8));
#8 = PRODUCT_CONTEXT('',#2,'mechanical');
#9 = PRODUCT_DEFINITION_CONTEXT('part definition',#2,'design');
#10 = SHAPE_REPRESENTATION('',(#11,#15),#19);
#11 = AXIS2_PLACEMENT_3D('',#12,#13,#14);
#12 = CARTESIAN_POINT('',(0.,0.,0.));
#13 = DIRECTION('',(0.,0.,1.));
#14 = DIRECTION('',(1.,0.,-0.));
#15 = AXIS2_PLACEMENT_3D('',#16,#17,#18);
#16 = CARTESIAN_POINT('',(0.,0.,0.));
#17 = DIRECTION('',(0.,0.,1.));
#18 = DIRECTION('',(1.,0.,0.));
#19 = ( GEOMETRIC_REPRESENTATION_CONTEXT(3) 
GLOBAL_UNCERTAINTY_ASSIGNED_CONTEXT((#23)) GLOBAL_UNIT_ASSIGNED_CONTEXT(
(#20,#21,#22)) REPRESENTATION_CONTEXT('Context #1',
  '3D Context with UNIT and UNCERTAINTY') );
#20 = ( LENGTH_UNIT() NAMED_UNIT(*) SI_UNIT(.MILLI.,.METRE.) );
#21 = ( NAMED_UNIT(*) PLANE_ANGLE_UNIT() SI_UNIT($,.RADIAN.) );
#22 = ( NAMED_UNIT(*) SI_UNIT($,.STERADIAN.) SOLID_ANGLE_UNIT() );
#23 = UNCERTAINTY_MEASURE_WITH_UNIT(LENGTH_MEASURE(2.E-05),#20,
  'distance_accuracy_value','confusion accuracy');
#24 = PRODUCT_RELATED_PRODUCT_CATEGORY('part',$,(#7));
#25 = SHAPE_DEFINITION_REPRESENTATION(#26,#32);
#26 = PRODUCT_DEFINITION_SHAPE('','',#27);
#27 = PRODUCT_DEFINITION('design','',#28,#31);
#28 = PRODUCT_DEFINITION_FORMATION('','',#29);
#29 = PRODUCT('Body','Body','',(#30));
#30 = PRODUCT_CONTEXT('',#2,'mechanical');
#31 = PRODUCT_DEFINITION_CONTEXT('part definition',#2,'design');
#32 = ADVANCED_BREP_SHAPE_REPRESENTATION('',(#11,#33),#1090);
#33 = MANIFOLD_SOLID_BREP('',#34);
#34 = CLOSED_SHELL('',(#35,#77,#199,#321,#354,#387,#409,#426,#443,#460,
    #477,#494,#511,#544,#561,#594,#657,#720,#742,#805,#868,#890,#907,
    #924,#936,#958,#975,#992,#1009,#1026,#1042,#1058,#1074));
#35 = ADVANCED_FACE('',(#36),#72,.T.);
#36 = FACE_BOUND('',#37,.F.);
#37 = EDGE_LOOP('',(#38,#48,#57,#65));
#38 = ORIENTED_EDGE('',*,*,#39,.T.);
#39 = EDGE_CURVE('',#40,#42,#44,.T.);
#40 = VERTEX_POINT('',#41);
#41 = CARTESIAN_POINT('',(-21.97373659621,-5.E-15,-22.57));
#42 = VERTEX_POINT('',#43);
#43 = CARTESIAN_POINT('',(-21.97373659621,-4.75,-22.57));
#44 = LINE('',#45,#46);
#45 = CARTESIAN_POINT('',(-21.97373659621,-1.002E-14,-22.57));
#46 = VECTOR('',#47,1.);
#47 = DIRECTION('',(0.,-1.,4.4E-16));
#48 = ORIENTED_EDGE('',*,*,#49,.T.);
#49 = EDGE_CURVE('',#42,#50,#52,.T.);
#50 = VERTEX_POINT('',#51);
#51 = CARTESIAN_POINT('',(21.973736596219,-4.75,-22.57));
#52 = CIRCLE('',#53,31.5);
#53 = AXIS2_PLACEMENT_3D('',#54,#55,#56);
#54 = CARTESIAN_POINT('',(0.,-4.75,2.E-15));
#55 = DIRECTION('',(0.,-1.,0.));
#56 = DIRECTION('',(1.,0.,0.));
#57 = ORIENTED_EDGE('',*,*,#58,.F.);
#58 = EDGE_CURVE('',#59,#50,#61,.T.);
#59 = VERTEX_POINT('',#60);
#60 = CARTESIAN_POINT('',(21.973736596219,-5.E-15,-22.57));
#61 = LINE('',#62,#63);
#62 = CARTESIAN_POINT('',(21.973736596219,-1.002E-14,-22.57));
#63 = VECTOR('',#64,1.);
#64 = DIRECTION('',(0.,-1.,4.4E-16));
#65 = ORIENTED_EDGE('',*,*,#66,.F.);
#66 = EDGE_CURVE('',#40,#59,#67,.T.);
#67 = CIRCLE('',#68,31.5);
#68 = AXIS2_PLACEMENT_3D('',#69,#70,#71);
#69 = CARTESIAN_POINT('',(0.,0.,0.));
#70 = DIRECTION('',(0.,-1.,0.));
#71 = DIRECTION('',(1.,0.,0.));
#72 = CYLINDRICAL_SURFACE('',#73,31.5);
#73 = AXIS2_PLACEMENT_3D('',#74,#75,#76);
#74 = CARTESIAN_POINT('',(0.,0.,0.));
#75 = DIRECTION('',(0.,1.,-4.4E-16));
#76 = DIRECTION('',(1.,0.,0.));
#77 = ADVANCED_FACE('',(#78,#183),#194,.T.);
#78 = FACE_BOUND('',#79,.T.);
#79 = EDGE_LOOP('',(#80,#90,#96,#97,#105,#113,#121,#129,#137,#145,#153,
    #161,#169,#177));
#80 = ORIENTED_EDGE('',*,*,#81,.F.);
#81 = EDGE_CURVE('',#82,#84,#86,.T.);
#82 = VERTEX_POINT('',#83);
#83 = CARTESIAN_POINT('',(40.,-5.E-15,-22.57));
#84 = VERTEX_POINT('',#85);
#85 = CARTESIAN_POINT('',(40.,8.E-15,37.43));
#86 = LINE('',#87,#88);
#87 = CARTESIAN_POINT('',(40.,0.,-22.57));
#88 = VECTOR('',#89,1.);
#89 = DIRECTION('',(0.,0.,1.));
#90 = ORIENTED_EDGE('',*,*,#91,.T.);
#91 = EDGE_CURVE('',#82,#59,#92,.T.);
#92 = LINE('',#93,#94);
#93 = CARTESIAN_POINT('',(40.,0.,-22.57));
#94 = VECTOR('',#95,1.);
#95 = DIRECTION('',(-1.,0.,0.));
#96 = ORIENTED_EDGE('',*,*,#66,.F.);
#97 = ORIENTED_EDGE('',*,*,#98,.F.);
#98 = EDGE_CURVE('',#99,#40,#101,.T.);
#99 = VERTEX_POINT('',#100);
#100 = CARTESIAN_POINT('',(-40.,-5.E-15,-22.57));
#101 = LINE('',#102,#103);
#102 = CARTESIAN_POINT('',(-40.,0.,-22.57));
#103 = VECTOR('',#104,1.);
#104 = DIRECTION('',(1.,0.,0.));
#105 = ORIENTED_EDGE('',*,*,#106,.F.);
#106 = EDGE_CURVE('',#107,#99,#109,.T.);
#107 = VERTEX_POINT('',#108);
#108 = CARTESIAN_POINT('',(-40.,8.E-15,37.43));
#109 = LINE('',#110,#111);
#110 = CARTESIAN_POINT('',(-40.,0.,37.43));
#111 = VECTOR('',#112,1.);
#112 = DIRECTION('',(0.,0.,-1.));
#113 = ORIENTED_EDGE('',*,*,#114,.F.);
#114 = EDGE_CURVE('',#115,#107,#117,.T.);
#115 = VERTEX_POINT('',#116);
#116 = CARTESIAN_POINT('',(-26.2,8.E-15,37.43));
#117 = LINE('',#118,#119);
#118 = CARTESIAN_POINT('',(40.,0.,37.43));
#119 = VECTOR('',#120,1.);
#120 = DIRECTION('',(-1.,0.,0.));
#121 = ORIENTED_EDGE('',*,*,#122,.T.);
#122 = EDGE_CURVE('',#115,#123,#125,.T.);
#123 = VERTEX_POINT('',#124);
#124 = CARTESIAN_POINT('',(-26.2,1.E-15,32.43));
#125 = LINE('',#126,#127);
#126 = CARTESIAN_POINT('',(-26.2,9.5E-16,21.009946786822));
#127 = VECTOR('',#128,1.);
#128 = DIRECTION('',(0.,0.,-1.));
#129 = ORIENTED_EDGE('',*,*,#130,.T.);
#130 = EDGE_CURVE('',#123,#131,#133,.T.);
#131 = VERTEX_POINT('',#132);
#132 = CARTESIAN_POINT('',(-9.8,1.E-15,32.43));
#133 = LINE('',#134,#135);
#134 = CARTESIAN_POINT('',(5.7E-16,1.4E-15,32.43));
#135 = VECTOR('',#136,1.);
#136 = DIRECTION('',(1.,0.,0.));
#137 = ORIENTED_EDGE('',*,*,#138,.T.);
#138 = EDGE_CURVE('',#131,#139,#141,.T.);
#139 = VERTEX_POINT('',#140);
#140 = CARTESIAN_POINT('',(-9.8,8.E-15,37.43));
#141 = LINE('',#142,#143);
#142 = CARTESIAN_POINT('',(-9.8,1.01E-15,21.009946786822));
#143 = VECTOR('',#144,1.);
#144 = DIRECTION('',(0.,0.,1.));
#145 = ORIENTED_EDGE('',*,*,#146,.F.);
#146 = EDGE_CURVE('',#147,#139,#149,.T.);
#147 = VERTEX_POINT('',#148);
#148 = CARTESIAN_POINT('',(9.8,8.E-15,37.43));
#149 = LINE('',#150,#151);
#150 = CARTESIAN_POINT('',(40.,0.,37.43));
#151 = VECTOR('',#152,1.);
#152 = DIRECTION('',(-1.,0.,0.));
#153 = ORIENTED_EDGE('',*,*,#154,.T.);
#154 = EDGE_CURVE('',#147,#155,#157,.T.);
#155 = VERTEX_POINT('',#156);
#156 = CARTESIAN_POINT('',(9.8,1.E-15,32.43));
#157 = LINE('',#158,#159);
#158 = CARTESIAN_POINT('',(9.8,9.5E-16,21.009946786822));
#159 = VECTOR('',#160,1.);
#160 = DIRECTION('',(0.,0.,-1.));
#161 = ORIENTED_EDGE('',*,*,#162,.T.);
#162 = EDGE_CURVE('',#155,#163,#165,.T.);
#163 = VERTEX_POINT('',#164);
#164 = CARTESIAN_POINT('',(26.2,1.E-15,32.43));
#165 = LINE('',#166,#167);
#166 = CARTESIAN_POINT('',(5.7E-16,1.4E-15,32.43));
#167 = VECTOR('',#168,1.);
#168 = DIRECTION('',(1.,0.,0.));
#169 = ORIENTED_EDGE('',*,*,#170,.T.);
#170 = EDGE_CURVE('',#163,#171,#173,.T.);
#171 = VERTEX_POINT('',#172);
#172 = CARTESIAN_POINT('',(26.2,8.E-15,37.43));
#173 = LINE('',#174,#175);
#174 = CARTESIAN_POINT('',(26.2,1.01E-15,21.009946786822));
#175 = VECTOR('',#176,1.);
#176 = DIRECTION('',(0.,0.,1.));
#177 = ORIENTED_EDGE('',*,*,#178,.F.);
#178 = EDGE_CURVE('',#84,#171,#179,.T.);
#179 = LINE('',#180,#181);
#180 = CARTESIAN_POINT('',(40.,0.,37.43));
#181 = VECTOR('',#182,1.);
#182 = DIRECTION('',(-1.,0.,0.));
#183 = FACE_BOUND('',#184,.T.);
#184 = EDGE_LOOP('',(#185));
#185 = ORIENTED_EDGE('',*,*,#186,.T.);
#186 = EDGE_CURVE('',#187,#187,#189,.T.);
#187 = VERTEX_POINT('',#188);
#188 = CARTESIAN_POINT('',(18.,0.,0.));
#189 = CIRCLE('',#190,18.);
#190 = AXIS2_PLACEMENT_3D('',#191,#192,#193);
#191 = CARTESIAN_POINT('',(0.,0.,0.));
#192 = DIRECTION('',(0.,-1.,0.));
#193 = DIRECTION('',(1.,0.,0.));
#194 = PLANE('',#195);
#195 = AXIS2_PLACEMENT_3D('',#196,#197,#198);
#196 = CARTESIAN_POINT('',(0.,1.02E-15,4.589893573645));
#197 = DIRECTION('',(0.,1.,0.));
#198 = DIRECTION('',(0.,0.,1.));
#199 = ADVANCED_FACE('',(#200,#305),#316,.F.);
#200 = FACE_BOUND('',#201,.F.);
#201 = EDGE_LOOP('',(#202,#212,#218,#219,#227,#235,#243,#251,#259,#267,
    #275,#283,#291,#299));
#202 = ORIENTED_EDGE('',*,*,#203,.F.);
#203 = EDGE_CURVE('',#204,#206,#208,.T.);
#204 = VERTEX_POINT('',#205);
#205 = CARTESIAN_POINT('',(40.,-4.75,-22.57));
#206 = VERTEX_POINT('',#207);
#207 = CARTESIAN_POINT('',(40.,-4.75,37.43));
#208 = LINE('',#209,#210);
#209 = CARTESIAN_POINT('',(40.,-4.75,-22.57));
#210 = VECTOR('',#211,1.);
#211 = DIRECTION('',(0.,0.,1.));
#212 = ORIENTED_EDGE('',*,*,#213,.T.);
#213 = EDGE_CURVE('',#204,#50,#214,.T.);
#214 = LINE('',#215,#216);
#215 = CARTESIAN_POINT('',(40.,-4.75,-22.57));
#216 = VECTOR('',#217,1.);
#217 = DIRECTION('',(-1.,0.,0.));
#218 = ORIENTED_EDGE('',*,*,#49,.F.);
#219 = ORIENTED_EDGE('',*,*,#220,.F.);
#220 = EDGE_CURVE('',#221,#42,#223,.T.);
#221 = VERTEX_POINT('',#222);
#222 = CARTESIAN_POINT('',(-40.,-4.75,-22.57));
#223 = LINE('',#224,#225);
#224 = CARTESIAN_POINT('',(-40.,-4.75,-22.57));
#225 = VECTOR('',#226,1.);
#226 = DIRECTION('',(1.,0.,0.));
#227 = ORIENTED_EDGE('',*,*,#228,.F.);
#228 = EDGE_CURVE('',#229,#221,#231,.T.);
#229 = VERTEX_POINT('',#230);
#230 = CARTESIAN_POINT('',(-40.,-4.75,37.43));
#231 = LINE('',#232,#233);
#232 = CARTESIAN_POINT('',(-40.,-4.75,37.43));
#233 = VECTOR('',#234,1.);
#234 = DIRECTION('',(0.,0.,-1.));
#235 = ORIENTED_EDGE('',*,*,#236,.F.);
#236 = EDGE_CURVE('',#237,#229,#239,.T.);
#237 = VERTEX_POINT('',#238);
#238 = CARTESIAN_POINT('',(-26.2,-4.75,37.43));
#239 = LINE('',#240,#241);
#240 = CARTESIAN_POINT('',(40.,-4.75,37.43));
#241 = VECTOR('',#242,1.);
#242 = DIRECTION('',(-1.,0.,0.));
#243 = ORIENTED_EDGE('',*,*,#244,.T.);
#244 = EDGE_CURVE('',#237,#245,#247,.T.);
#245 = VERTEX_POINT('',#246);
#246 = CARTESIAN_POINT('',(-26.2,-4.75,32.43));
#247 = LINE('',#248,#249);
#248 = CARTESIAN_POINT('',(-26.2,-4.75,21.009946786822));
#249 = VECTOR('',#250,1.);
#250 = DIRECTION('',(0.,0.,-1.));
#251 = ORIENTED_EDGE('',*,*,#252,.T.);
#252 = EDGE_CURVE('',#245,#253,#255,.T.);
#253 = VERTEX_POINT('',#254);
#254 = CARTESIAN_POINT('',(-9.8,-4.75,32.43));
#255 = LINE('',#256,#257);
#256 = CARTESIAN_POINT('',(5.7E-16,-4.75,32.43));
#257 = VECTOR('',#258,1.);
#258 = DIRECTION('',(1.,0.,0.));
#259 = ORIENTED_EDGE('',*,*,#260,.T.);
#260 = EDGE_CURVE('',#253,#261,#263,.T.);
#261 = VERTEX_POINT('',#262);
#262 = CARTESIAN_POINT('',(-9.8,-4.75,37.43));
#263 = LINE('',#264,#265);
#264 = CARTESIAN_POINT('',(-9.8,-4.75,21.009946786822));
#265 = VECTOR('',#266,1.);
#266 = DIRECTION('',(0.,0.,1.));
#267 = ORIENTED_EDGE('',*,*,#268,.F.);
#268 = EDGE_CURVE('',#269,#261,#271,.T.);
#269 = VERTEX_POINT('',#270);
#270 = CARTESIAN_POINT('',(9.8,-4.75,37.43));
#271 = LINE('',#272,#273);
#272 = CARTESIAN_POINT('',(40.,-4.75,37.43));
#273 = VECTOR('',#274,1.);
#274 = DIRECTION('',(-1.,0.,0.));
#275 = ORIENTED_EDGE('',*,*,#276,.T.);
#276 = EDGE_CURVE('',#269,#277,#279,.T.);
#277 = VERTEX_POINT('',#278);
#278 = CARTESIAN_POINT('',(9.8,-4.75,32.43));
#279 = LINE('',#280,#281);
#280 = CARTESIAN_POINT('',(9.8,-4.75,21.009946786822));
#281 = VECTOR('',#282,1.);
#282 = DIRECTION('',(0.,0.,-1.));
#283 = ORIENTED_EDGE('',*,*,#284,.T.);
#284 = EDGE_CURVE('',#277,#285,#287,.T.);
#285 = VERTEX_POINT('',#286);
#286 = CARTESIAN_POINT('',(26.2,-4.75,32.43));
#287 = LINE('',#288,#289);
#288 = CARTESIAN_POINT('',(5.7E-16,-4.75,32.43));
#289 = VECTOR('',#290,1.);
#290 = DIRECTION('',(1.,0.,0.));
#291 = ORIENTED_EDGE('',*,*,#292,.T.);
#292 = EDGE_CURVE('',#285,#293,#295,.T.);
#293 = VERTEX_POINT('',#294);
#294 = CARTESIAN_POINT('',(26.2,-4.75,37.43));
#295 = LINE('',#296,#297);
#296 = CARTESIAN_POINT('',(26.2,-4.75,21.009946786822));
#297 = VECTOR('',#298,1.);
#298 = DIRECTION('',(0.,0.,1.));
#299 = ORIENTED_EDGE('',*,*,#300,.F.);
#300 = EDGE_CURVE('',#206,#293,#301,.T.);
#301 = LINE('',#302,#303);
#302 = CARTESIAN_POINT('',(40.,-4.75,37.43));
#303 = VECTOR('',#304,1.);
#304 = DIRECTION('',(-1.,0.,0.));
#305 = FACE_BOUND('',#306,.F.);
#306 = EDGE_LOOP('',(#307));
#307 = ORIENTED_EDGE('',*,*,#308,.T.);
#308 = EDGE_CURVE('',#309,#309,#311,.T.);
#309 = VERTEX_POINT('',#310);
#310 = CARTESIAN_POINT('',(18.,-4.75,1.E-15));
#311 = CIRCLE('',#312,18.);
#312 = AXIS2_PLACEMENT_3D('',#313,#314,#315);
#313 = CARTESIAN_POINT('',(0.,-4.75,2.E-15));
#314 = DIRECTION('',(0.,-1.,0.));
#315 = DIRECTION('',(1.,0.,0.));
#316 = PLANE('',#317);
#317 = AXIS2_PLACEMENT_3D('',#318,#319,#320);
#318 = CARTESIAN_POINT('',(0.,-4.75,4.589893573645));
#319 = DIRECTION('',(0.,1.,0.));
#320 = DIRECTION('',(0.,0.,1.));
#321 = ADVANCED_FACE('',(#322),#349,.T.);
#322 = FACE_BOUND('',#323,.F.);
#323 = EDGE_LOOP('',(#324,#333,#341,#348));
#324 = ORIENTED_EDGE('',*,*,#325,.T.);
#325 = EDGE_CURVE('',#206,#326,#328,.T.);
#326 = VERTEX_POINT('',#327);
#327 = CARTESIAN_POINT('',(47.347932047442,0.206242747179,37.43));
#328 = CIRCLE('',#329,7.925);
#329 = AXIS2_PLACEMENT_3D('',#330,#331,#332);
#330 = CARTESIAN_POINT('',(40.,3.175,37.43));
#331 = DIRECTION('',(-0.,2.2E-16,1.));
#332 = DIRECTION('',(0.,-1.,2.2E-16));
#333 = ORIENTED_EDGE('',*,*,#334,.T.);
#334 = EDGE_CURVE('',#326,#335,#337,.T.);
#335 = VERTEX_POINT('',#336);
#336 = CARTESIAN_POINT('',(47.347932047442,0.206242747179,-22.57));
#337 = LINE('',#338,#339);
#338 = CARTESIAN_POINT('',(47.347932047442,0.206242747179,37.43));
#339 = VECTOR('',#340,1.);
#340 = DIRECTION('',(2.039804480047E-16,-8.24134505515E-17,-1.));
#341 = ORIENTED_EDGE('',*,*,#342,.F.);
#342 = EDGE_CURVE('',#204,#335,#343,.T.);
#343 = CIRCLE('',#344,7.925);
#344 = AXIS2_PLACEMENT_3D('',#345,#346,#347);
#345 = CARTESIAN_POINT('',(40.,3.175,-22.57));
#346 = DIRECTION('',(-0.,2.2E-16,1.));
#347 = DIRECTION('',(0.,-1.,2.2E-16));
#348 = ORIENTED_EDGE('',*,*,#203,.T.);
#349 = CYLINDRICAL_SURFACE('',#350,7.925);
#350 = AXIS2_PLACEMENT_3D('',#351,#352,#353);
#351 = CARTESIAN_POINT('',(40.,3.175,37.43));
#352 = DIRECTION('',(-0.,-2.2E-16,-1.));
#353 = DIRECTION('',(0.,-1.,2.2E-16));
#354 = ADVANCED_FACE('',(#355),#382,.F.);
#355 = FACE_BOUND('',#356,.F.);
#356 = EDGE_LOOP('',(#357,#366,#374,#381));
#357 = ORIENTED_EDGE('',*,*,#358,.T.);
#358 = EDGE_CURVE('',#82,#359,#361,.T.);
#359 = VERTEX_POINT('',#360);
#360 = CARTESIAN_POINT('',(42.94380873825,1.985624065904,-22.57));
#361 = CIRCLE('',#362,3.175);
#362 = AXIS2_PLACEMENT_3D('',#363,#364,#365);
#363 = CARTESIAN_POINT('',(40.,3.175,-22.57));
#364 = DIRECTION('',(-0.,2.2E-16,1.));
#365 = DIRECTION('',(0.,-1.,2.2E-16));
#366 = ORIENTED_EDGE('',*,*,#367,.T.);
#367 = EDGE_CURVE('',#359,#368,#370,.T.);
#368 = VERTEX_POINT('',#369);
#369 = CARTESIAN_POINT('',(42.94380873825,1.985624065904,37.43));
#370 = LINE('',#371,#372);
#371 = CARTESIAN_POINT('',(42.94380873825,1.985624065904,-22.57));
#372 = VECTOR('',#373,1.);
#373 = DIRECTION('',(-2.039804480047E-16,8.24134505515E-17,1.));
#374 = ORIENTED_EDGE('',*,*,#375,.F.);
#375 = EDGE_CURVE('',#84,#368,#376,.T.);
#376 = CIRCLE('',#377,3.175);
#377 = AXIS2_PLACEMENT_3D('',#378,#379,#380);
#378 = CARTESIAN_POINT('',(40.,3.175,37.43));
#379 = DIRECTION('',(-0.,2.2E-16,1.));
#380 = DIRECTION('',(0.,-1.,2.2E-16));
#381 = ORIENTED_EDGE('',*,*,#81,.F.);
#382 = CYLINDRICAL_SURFACE('',#383,3.175);
#383 = AXIS2_PLACEMENT_3D('',#384,#385,#386);
#384 = CARTESIAN_POINT('',(40.,3.175,-22.57));
#385 = DIRECTION('',(0.,2.2E-16,1.));
#386 = DIRECTION('',(0.,-1.,2.2E-16));
#387 = ADVANCED_FACE('',(#388),#404,.T.);
#388 = FACE_BOUND('',#389,.T.);
#389 = EDGE_LOOP('',(#390,#396,#397,#403));
#390 = ORIENTED_EDGE('',*,*,#391,.F.);
#391 = EDGE_CURVE('',#171,#293,#392,.T.);
#392 = LINE('',#393,#394);
#393 = CARTESIAN_POINT('',(26.2,0.4,37.43));
#394 = VECTOR('',#395,1.);
#395 = DIRECTION('',(0.,-1.,0.));
#396 = ORIENTED_EDGE('',*,*,#170,.F.);
#397 = ORIENTED_EDGE('',*,*,#398,.T.);
#398 = EDGE_CURVE('',#163,#285,#399,.T.);
#399 = LINE('',#400,#401);
#400 = CARTESIAN_POINT('',(26.2,0.4,32.43));
#401 = VECTOR('',#402,1.);
#402 = DIRECTION('',(0.,-1.,0.));
#403 = ORIENTED_EDGE('',*,*,#292,.T.);
#404 = PLANE('',#405);
#405 = AXIS2_PLACEMENT_3D('',#406,#407,#408);
#406 = CARTESIAN_POINT('',(26.2,0.4,37.43));
#407 = DIRECTION('',(-1.,0.,0.));
#408 = DIRECTION('',(0.,-1.,0.));
#409 = ADVANCED_FACE('',(#410),#421,.T.);
#410 = FACE_BOUND('',#411,.T.);
#411 = EDGE_LOOP('',(#412,#413,#419,#420));
#412 = ORIENTED_EDGE('',*,*,#162,.F.);
#413 = ORIENTED_EDGE('',*,*,#414,.F.);
#414 = EDGE_CURVE('',#277,#155,#415,.T.);
#415 = LINE('',#416,#417);
#416 = CARTESIAN_POINT('',(9.8,-5.2,32.43));
#417 = VECTOR('',#418,1.);
#418 = DIRECTION('',(0.,1.,0.));
#419 = ORIENTED_EDGE('',*,*,#284,.T.);
#420 = ORIENTED_EDGE('',*,*,#398,.F.);
#421 = PLANE('',#422);
#422 = AXIS2_PLACEMENT_3D('',#423,#424,#425);
#423 = CARTESIAN_POINT('',(1.13E-15,9.88568663001,32.43));
#424 = DIRECTION('',(0.,0.,1.));
#425 = DIRECTION('',(1.,0.,0.));
#426 = ADVANCED_FACE('',(#427),#438,.T.);
#427 = FACE_BOUND('',#428,.T.);
#428 = EDGE_LOOP('',(#429,#435,#436,#437));
#429 = ORIENTED_EDGE('',*,*,#430,.F.);
#430 = EDGE_CURVE('',#269,#147,#431,.T.);
#431 = LINE('',#432,#433);
#432 = CARTESIAN_POINT('',(9.8,-5.2,37.43));
#433 = VECTOR('',#434,1.);
#434 = DIRECTION('',(0.,1.,0.));
#435 = ORIENTED_EDGE('',*,*,#276,.T.);
#436 = ORIENTED_EDGE('',*,*,#414,.T.);
#437 = ORIENTED_EDGE('',*,*,#154,.F.);
#438 = PLANE('',#439);
#439 = AXIS2_PLACEMENT_3D('',#440,#441,#442);
#440 = CARTESIAN_POINT('',(9.8,-5.2,37.43));
#441 = DIRECTION('',(1.,0.,0.));
#442 = DIRECTION('',(-0.,1.,0.));
#443 = ADVANCED_FACE('',(#444),#455,.F.);
#444 = FACE_BOUND('',#445,.F.);
#445 = EDGE_LOOP('',(#446,#447,#448,#449));
#446 = ORIENTED_EDGE('',*,*,#146,.F.);
#447 = ORIENTED_EDGE('',*,*,#430,.F.);
#448 = ORIENTED_EDGE('',*,*,#268,.T.);
#449 = ORIENTED_EDGE('',*,*,#450,.F.);
#450 = EDGE_CURVE('',#139,#261,#451,.T.);
#451 = LINE('',#452,#453);
#452 = CARTESIAN_POINT('',(-9.8,0.4,37.43));
#453 = VECTOR('',#454,1.);
#454 = DIRECTION('',(0.,-1.,0.));
#455 = PLANE('',#456);
#456 = AXIS2_PLACEMENT_3D('',#457,#458,#459);
#457 = CARTESIAN_POINT('',(40.,1.662E-14,37.43));
#458 = DIRECTION('',(0.,-4.4E-16,-1.));
#459 = DIRECTION('',(-1.,0.,0.));
#460 = ADVANCED_FACE('',(#461),#472,.T.);
#461 = FACE_BOUND('',#462,.T.);
#462 = EDGE_LOOP('',(#463,#464,#465,#471));
#463 = ORIENTED_EDGE('',*,*,#450,.F.);
#464 = ORIENTED_EDGE('',*,*,#138,.F.);
#465 = ORIENTED_EDGE('',*,*,#466,.T.);
#466 = EDGE_CURVE('',#131,#253,#467,.T.);
#467 = LINE('',#468,#469);
#468 = CARTESIAN_POINT('',(-9.8,0.4,32.43));
#469 = VECTOR('',#470,1.);
#470 = DIRECTION('',(0.,-1.,0.));
#471 = ORIENTED_EDGE('',*,*,#260,.T.);
#472 = PLANE('',#473);
#473 = AXIS2_PLACEMENT_3D('',#474,#475,#476);
#474 = CARTESIAN_POINT('',(-9.8,0.4,37.43));
#475 = DIRECTION('',(-1.,0.,0.));
#476 = DIRECTION('',(0.,-1.,0.));
#477 = ADVANCED_FACE('',(#478),#489,.T.);
#478 = FACE_BOUND('',#479,.T.);
#479 = EDGE_LOOP('',(#480,#481,#487,#488));
#480 = ORIENTED_EDGE('',*,*,#130,.F.);
#481 = ORIENTED_EDGE('',*,*,#482,.F.);
#482 = EDGE_CURVE('',#245,#123,#483,.T.);
#483 = LINE('',#484,#485);
#484 = CARTESIAN_POINT('',(-26.2,-5.2,32.43));
#485 = VECTOR('',#486,1.);
#486 = DIRECTION('',(0.,1.,0.));
#487 = ORIENTED_EDGE('',*,*,#252,.T.);
#488 = ORIENTED_EDGE('',*,*,#466,.F.);
#489 = PLANE('',#490);
#490 = AXIS2_PLACEMENT_3D('',#491,#492,#493);
#491 = CARTESIAN_POINT('',(1.13E-15,9.88568663001,32.43));
#492 = DIRECTION('',(0.,0.,1.));
#493 = DIRECTION('',(1.,0.,0.));
#494 = ADVANCED_FACE('',(#495),#506,.T.);
#495 = FACE_BOUND('',#496,.T.);
#496 = EDGE_LOOP('',(#497,#503,#504,#505));
#497 = ORIENTED_EDGE('',*,*,#498,.F.);
#498 = EDGE_CURVE('',#237,#115,#499,.T.);
#499 = LINE('',#500,#501);
#500 = CARTESIAN_POINT('',(-26.2,-5.2,37.43));
#501 = VECTOR('',#502,1.);
#502 = DIRECTION('',(0.,1.,0.));
#503 = ORIENTED_EDGE('',*,*,#244,.T.);
#504 = ORIENTED_EDGE('',*,*,#482,.T.);
#505 = ORIENTED_EDGE('',*,*,#122,.F.);
#506 = PLANE('',#507);
#507 = AXIS2_PLACEMENT_3D('',#508,#509,#510);
#508 = CARTESIAN_POINT('',(-26.2,-5.2,37.43));
#509 = DIRECTION('',(1.,0.,0.));
#510 = DIRECTION('',(-0.,1.,0.));
#511 = ADVANCED_FACE('',(#512),#539,.F.);
#512 = FACE_BOUND('',#513,.F.);
#513 = EDGE_LOOP('',(#514,#523,#531,#538));
#514 = ORIENTED_EDGE('',*,*,#515,.T.);
#515 = EDGE_CURVE('',#107,#516,#518,.T.);
#516 = VERTEX_POINT('',#517);
#517 = CARTESIAN_POINT('',(-42.94380873825,1.985624065904,37.43));
#518 = CIRCLE('',#519,3.175);
#519 = AXIS2_PLACEMENT_3D('',#520,#521,#522);
#520 = CARTESIAN_POINT('',(-40.,3.175,37.43));
#521 = DIRECTION('',(-0.,-2.2E-16,-1.));
#522 = DIRECTION('',(0.,-1.,2.2E-16));
#523 = ORIENTED_EDGE('',*,*,#524,.T.);
#524 = EDGE_CURVE('',#516,#525,#527,.T.);
#525 = VERTEX_POINT('',#526);
#526 = CARTESIAN_POINT('',(-42.94380873825,1.985624065904,-22.57));
#527 = LINE('',#528,#529);
#528 = CARTESIAN_POINT('',(-42.94380873825,1.985624065904,37.43));
#529 = VECTOR('',#530,1.);
#530 = DIRECTION('',(-2.039804480047E-16,-8.24134505515E-17,-1.));
#531 = ORIENTED_EDGE('',*,*,#532,.F.);
#532 = EDGE_CURVE('',#99,#525,#533,.T.);
#533 = CIRCLE('',#534,3.175);
#534 = AXIS2_PLACEMENT_3D('',#535,#536,#537);
#535 = CARTESIAN_POINT('',(-40.,3.175,-22.57));
#536 = DIRECTION('',(-0.,-2.2E-16,-1.));
#537 = DIRECTION('',(0.,-1.,2.2E-16));
#538 = ORIENTED_EDGE('',*,*,#106,.F.);
#539 = CYLINDRICAL_SURFACE('',#540,3.175);
#540 = AXIS2_PLACEMENT_3D('',#541,#542,#543);
#541 = CARTESIAN_POINT('',(-40.,3.175,37.43));
#542 = DIRECTION('',(0.,-2.2E-16,-1.));
#543 = DIRECTION('',(0.,-1.,2.2E-16));
#544 = ADVANCED_FACE('',(#545),#556,.F.);
#545 = FACE_BOUND('',#546,.T.);
#546 = EDGE_LOOP('',(#547,#553,#554,#555));
#547 = ORIENTED_EDGE('',*,*,#548,.T.);
#548 = EDGE_CURVE('',#187,#309,#549,.T.);
#549 = LINE('',#550,#551);
#550 = CARTESIAN_POINT('',(18.,0.,0.));
#551 = VECTOR('',#552,1.);
#552 = DIRECTION('',(0.,-1.,4.4E-16));
#553 = ORIENTED_EDGE('',*,*,#308,.T.);
#554 = ORIENTED_EDGE('',*,*,#548,.F.);
#555 = ORIENTED_EDGE('',*,*,#186,.F.);
#556 = CYLINDRICAL_SURFACE('',#557,18.);
#557 = AXIS2_PLACEMENT_3D('',#558,#559,#560);
#558 = CARTESIAN_POINT('',(0.,0.,0.));
#559 = DIRECTION('',(0.,1.,-4.4E-16));
#560 = DIRECTION('',(1.,0.,0.));
#561 = ADVANCED_FACE('',(#562),#589,.T.);
#562 = FACE_BOUND('',#563,.F.);
#563 = EDGE_LOOP('',(#564,#573,#581,#588));
#564 = ORIENTED_EDGE('',*,*,#565,.T.);
#565 = EDGE_CURVE('',#221,#566,#568,.T.);
#566 = VERTEX_POINT('',#567);
#567 = CARTESIAN_POINT('',(-47.34793204744,0.206242747179,-22.57));
#568 = CIRCLE('',#569,7.925);
#569 = AXIS2_PLACEMENT_3D('',#570,#571,#572);
#570 = CARTESIAN_POINT('',(-40.,3.175,-22.57));
#571 = DIRECTION('',(-0.,-2.2E-16,-1.));
#572 = DIRECTION('',(0.,-1.,2.2E-16));
#573 = ORIENTED_EDGE('',*,*,#574,.T.);
#574 = EDGE_CURVE('',#566,#575,#577,.T.);
#575 = VERTEX_POINT('',#576);
#576 = CARTESIAN_POINT('',(-47.34793204744,0.206242747179,37.43));
#577 = LINE('',#578,#579);
#578 = CARTESIAN_POINT('',(-47.34793204744,0.206242747179,-22.57));
#579 = VECTOR('',#580,1.);
#580 = DIRECTION('',(2.039804480047E-16,8.24134505515E-17,1.));
#581 = ORIENTED_EDGE('',*,*,#582,.F.);
#582 = EDGE_CURVE('',#229,#575,#583,.T.);
#583 = CIRCLE('',#584,7.925);
#584 = AXIS2_PLACEMENT_3D('',#585,#586,#587);
#585 = CARTESIAN_POINT('',(-40.,3.175,37.43));
#586 = DIRECTION('',(-0.,-2.2E-16,-1.));
#587 = DIRECTION('',(0.,-1.,2.2E-16));
#588 = ORIENTED_EDGE('',*,*,#228,.T.);
#589 = CYLINDRICAL_SURFACE('',#590,7.925);
#590 = AXIS2_PLACEMENT_3D('',#591,#592,#593);
#591 = CARTESIAN_POINT('',(-40.,3.175,-22.57));
#592 = DIRECTION('',(0.,2.2E-16,1.));
#593 = DIRECTION('',(0.,-1.,2.2E-16));
#594 = ADVANCED_FACE('',(#595),#652,.T.);
#595 = FACE_BOUND('',#596,.T.);
#596 = EDGE_LOOP('',(#597,#605,#606,#614,#622,#630,#638,#646));
#597 = ORIENTED_EDGE('',*,*,#598,.T.);
#598 = EDGE_CURVE('',#599,#326,#601,.T.);
#599 = VERTEX_POINT('',#600);
#600 = CARTESIAN_POINT('',(52.825242353073,13.763061476727,37.43));
#601 = LINE('',#602,#603);
#602 = CARTESIAN_POINT('',(64.579835344574,42.856700057251,37.43));
#603 = VECTOR('',#604,1.);
#604 = DIRECTION('',(-0.374606593416,-0.927183854567,0.));
#605 = ORIENTED_EDGE('',*,*,#334,.T.);
#606 = ORIENTED_EDGE('',*,*,#607,.T.);
#607 = EDGE_CURVE('',#335,#608,#610,.T.);
#608 = VERTEX_POINT('',#609);
#609 = CARTESIAN_POINT('',(64.579835344574,42.856700057251,-22.57));
#610 = LINE('',#611,#612);
#611 = CARTESIAN_POINT('',(47.347932047442,0.206242747179,-22.57));
#612 = VECTOR('',#613,1.);
#613 = DIRECTION('',(0.374606593416,0.927183854567,0.));
#614 = ORIENTED_EDGE('',*,*,#615,.T.);
#615 = EDGE_CURVE('',#608,#616,#618,.T.);
#616 = VERTEX_POINT('',#617);
#617 = CARTESIAN_POINT('',(64.579835344574,42.856700057251,37.43));
#618 = LINE('',#619,#620);
#619 = CARTESIAN_POINT('',(64.579835344574,42.856700057251,-22.57));
#620 = VECTOR('',#621,1.);
#621 = DIRECTION('',(-2.039804480047E-16,8.24134505515E-17,1.));
#622 = ORIENTED_EDGE('',*,*,#623,.T.);
#623 = EDGE_CURVE('',#616,#624,#626,.T.);
#624 = VERTEX_POINT('',#625);
#625 = CARTESIAN_POINT('',(58.968790485094,28.968876691623,37.43));
#626 = LINE('',#627,#628);
#627 = CARTESIAN_POINT('',(64.579835344574,42.856700057251,37.43));
#628 = VECTOR('',#629,1.);
#629 = DIRECTION('',(-0.374606593416,-0.927183854567,0.));
#630 = ORIENTED_EDGE('',*,*,#631,.T.);
#631 = EDGE_CURVE('',#624,#632,#634,.T.);
#632 = VERTEX_POINT('',#633);
#633 = CARTESIAN_POINT('',(58.968790485094,28.968876691623,32.43));
#634 = LINE('',#635,#636);
#635 = CARTESIAN_POINT('',(58.968790485094,28.968876691623,22.43));
#636 = VECTOR('',#637,1.);
#637 = DIRECTION('',(-1.3E-16,5.E-17,-1.));
#638 = ORIENTED_EDGE('',*,*,#639,.T.);
#639 = EDGE_CURVE('',#632,#640,#642,.T.);
#640 = VERTEX_POINT('',#641);
#641 = CARTESIAN_POINT('',(52.825242353073,13.763061476727,32.43));
#642 = LINE('',#643,#644);
#643 = CARTESIAN_POINT('',(50.014714534877,6.806761022751,32.43));
#644 = VECTOR('',#645,1.);
#645 = DIRECTION('',(-0.374606593416,-0.927183854567,0.));
#646 = ORIENTED_EDGE('',*,*,#647,.T.);
#647 = EDGE_CURVE('',#640,#599,#648,.T.);
#648 = LINE('',#649,#650);
#649 = CARTESIAN_POINT('',(52.825242353073,13.763061476727,22.43));
#650 = VECTOR('',#651,1.);
#651 = DIRECTION('',(1.3E-16,-5.E-17,1.));
#652 = PLANE('',#653);
#653 = AXIS2_PLACEMENT_3D('',#654,#655,#656);
#654 = CARTESIAN_POINT('',(55.963883696008,21.531471402215,7.43));
#655 = DIRECTION('',(0.927183854567,-0.374606593416,0.));
#656 = DIRECTION('',(0.,0.,-1.));
#657 = ADVANCED_FACE('',(#658),#715,.F.);
#658 = FACE_BOUND('',#659,.F.);
#659 = EDGE_LOOP('',(#660,#661,#669,#677,#685,#693,#701,#709));
#660 = ORIENTED_EDGE('',*,*,#367,.F.);
#661 = ORIENTED_EDGE('',*,*,#662,.T.);
#662 = EDGE_CURVE('',#359,#663,#665,.T.);
#663 = VERTEX_POINT('',#664);
#664 = CARTESIAN_POINT('',(60.175712035381,44.636081375977,-22.57));
#665 = LINE('',#666,#667);
#666 = CARTESIAN_POINT('',(42.94380873825,1.985624065904,-22.57));
#667 = VECTOR('',#668,1.);
#668 = DIRECTION('',(0.374606593416,0.927183854567,0.));
#669 = ORIENTED_EDGE('',*,*,#670,.T.);
#670 = EDGE_CURVE('',#663,#671,#673,.T.);
#671 = VERTEX_POINT('',#672);
#672 = CARTESIAN_POINT('',(60.175712035381,44.636081375977,37.43));
#673 = LINE('',#674,#675);
#674 = CARTESIAN_POINT('',(60.175712035382,44.636081375977,-22.57));
#675 = VECTOR('',#676,1.);
#676 = DIRECTION('',(-2.039804480047E-16,8.24134505515E-17,1.));
#677 = ORIENTED_EDGE('',*,*,#678,.T.);
#678 = EDGE_CURVE('',#671,#679,#681,.T.);
#679 = VERTEX_POINT('',#680);
#680 = CARTESIAN_POINT('',(54.564667175901,30.748258010348,37.43));
#681 = LINE('',#682,#683);
#682 = CARTESIAN_POINT('',(60.175712035382,44.636081375977,37.43));
#683 = VECTOR('',#684,1.);
#684 = DIRECTION('',(-0.374606593416,-0.927183854567,0.));
#685 = ORIENTED_EDGE('',*,*,#686,.T.);
#686 = EDGE_CURVE('',#679,#687,#689,.T.);
#687 = VERTEX_POINT('',#688);
#688 = CARTESIAN_POINT('',(54.564667175901,30.748258010348,32.43));
#689 = LINE('',#690,#691);
#690 = CARTESIAN_POINT('',(54.564667175901,30.748258010348,22.43));
#691 = VECTOR('',#692,1.);
#692 = DIRECTION('',(-1.3E-16,5.E-17,-1.));
#693 = ORIENTED_EDGE('',*,*,#694,.T.);
#694 = EDGE_CURVE('',#687,#695,#697,.T.);
#695 = VERTEX_POINT('',#696);
#696 = CARTESIAN_POINT('',(48.42111904388,15.542442795453,32.43));
#697 = LINE('',#698,#699);
#698 = CARTESIAN_POINT('',(45.610591225685,8.586142341477,32.43));
#699 = VECTOR('',#700,1.);
#700 = DIRECTION('',(-0.374606593416,-0.927183854567,0.));
#701 = ORIENTED_EDGE('',*,*,#702,.T.);
#702 = EDGE_CURVE('',#695,#703,#705,.T.);
#703 = VERTEX_POINT('',#704);
#704 = CARTESIAN_POINT('',(48.42111904388,15.542442795453,37.43));
#705 = LINE('',#706,#707);
#706 = CARTESIAN_POINT('',(48.42111904388,15.542442795453,22.43));
#707 = VECTOR('',#708,1.);
#708 = DIRECTION('',(1.3E-16,-5.E-17,1.));
#709 = ORIENTED_EDGE('',*,*,#710,.T.);
#710 = EDGE_CURVE('',#703,#368,#711,.T.);
#711 = LINE('',#712,#713);
#712 = CARTESIAN_POINT('',(60.175712035382,44.636081375977,37.43));
#713 = VECTOR('',#714,1.);
#714 = DIRECTION('',(-0.374606593416,-0.927183854567,0.));
#715 = PLANE('',#716);
#716 = AXIS2_PLACEMENT_3D('',#717,#718,#719);
#717 = CARTESIAN_POINT('',(51.559760386816,23.310852720941,7.43));
#718 = DIRECTION('',(0.927183854567,-0.374606593416,0.));
#719 = DIRECTION('',(0.,0.,-1.));
#720 = ADVANCED_FACE('',(#721),#737,.T.);
#721 = FACE_BOUND('',#722,.T.);
#722 = EDGE_LOOP('',(#723,#729,#730,#736));
#723 = ORIENTED_EDGE('',*,*,#724,.T.);
#724 = EDGE_CURVE('',#608,#663,#725,.T.);
#725 = LINE('',#726,#727);
#726 = CARTESIAN_POINT('',(64.579835344574,42.856700057251,-22.57));
#727 = VECTOR('',#728,1.);
#728 = DIRECTION('',(-0.927183854567,0.374606593416,0.));
#729 = ORIENTED_EDGE('',*,*,#670,.T.);
#730 = ORIENTED_EDGE('',*,*,#731,.F.);
#731 = EDGE_CURVE('',#616,#671,#732,.T.);
#732 = LINE('',#733,#734);
#733 = CARTESIAN_POINT('',(64.579835344574,42.856700057251,37.43));
#734 = VECTOR('',#735,1.);
#735 = DIRECTION('',(-0.927183854567,0.374606593416,0.));
#736 = ORIENTED_EDGE('',*,*,#615,.F.);
#737 = PLANE('',#738);
#738 = AXIS2_PLACEMENT_3D('',#739,#740,#741);
#739 = CARTESIAN_POINT('',(64.579835344574,42.856700057251,-22.57));
#740 = DIRECTION('',(0.374606593416,0.927183854567,0.));
#741 = DIRECTION('',(-2.039804480047E-16,8.24134505515E-17,1.));
#742 = ADVANCED_FACE('',(#743),#800,.F.);
#743 = FACE_BOUND('',#744,.F.);
#744 = EDGE_LOOP('',(#745,#746,#754,#762,#770,#778,#786,#794));
#745 = ORIENTED_EDGE('',*,*,#524,.F.);
#746 = ORIENTED_EDGE('',*,*,#747,.T.);
#747 = EDGE_CURVE('',#516,#748,#750,.T.);
#748 = VERTEX_POINT('',#749);
#749 = CARTESIAN_POINT('',(-48.42111904388,15.542442795453,37.43));
#750 = LINE('',#751,#752);
#751 = CARTESIAN_POINT('',(-42.94380873825,1.985624065904,37.43));
#752 = VECTOR('',#753,1.);
#753 = DIRECTION('',(-0.374606593416,0.927183854567,0.));
#754 = ORIENTED_EDGE('',*,*,#755,.T.);
#755 = EDGE_CURVE('',#748,#756,#758,.T.);
#756 = VERTEX_POINT('',#757);
#757 = CARTESIAN_POINT('',(-48.42111904388,15.542442795453,32.43));
#758 = LINE('',#759,#760);
#759 = CARTESIAN_POINT('',(-48.42111904388,15.542442795453,22.43));
#760 = VECTOR('',#761,1.);
#761 = DIRECTION('',(1.3E-16,5.E-17,-1.));
#762 = ORIENTED_EDGE('',*,*,#763,.T.);
#763 = EDGE_CURVE('',#756,#764,#766,.T.);
#764 = VERTEX_POINT('',#765);
#765 = CARTESIAN_POINT('',(-54.5646671759,30.748258010348,32.43));
#766 = LINE('',#767,#768);
#767 = CARTESIAN_POINT('',(-45.61059122568,8.586142341477,32.43));
#768 = VECTOR('',#769,1.);
#769 = DIRECTION('',(-0.374606593416,0.927183854567,0.));
#770 = ORIENTED_EDGE('',*,*,#771,.T.);
#771 = EDGE_CURVE('',#764,#772,#774,.T.);
#772 = VERTEX_POINT('',#773);
#773 = CARTESIAN_POINT('',(-54.5646671759,30.748258010348,37.43));
#774 = LINE('',#775,#776);
#775 = CARTESIAN_POINT('',(-54.5646671759,30.748258010348,22.43));
#776 = VECTOR('',#777,1.);
#777 = DIRECTION('',(-1.3E-16,-5.E-17,1.));
#778 = ORIENTED_EDGE('',*,*,#779,.T.);
#779 = EDGE_CURVE('',#772,#780,#782,.T.);
#780 = VERTEX_POINT('',#781);
#781 = CARTESIAN_POINT('',(-60.17571203538,44.636081375977,37.43));
#782 = LINE('',#783,#784);
#783 = CARTESIAN_POINT('',(-42.94380873825,1.985624065904,37.43));
#784 = VECTOR('',#785,1.);
#785 = DIRECTION('',(-0.374606593416,0.927183854567,0.));
#786 = ORIENTED_EDGE('',*,*,#787,.T.);
#787 = EDGE_CURVE('',#780,#788,#790,.T.);
#788 = VERTEX_POINT('',#789);
#789 = CARTESIAN_POINT('',(-60.17571203538,44.636081375977,-22.57));
#790 = LINE('',#791,#792);
#791 = CARTESIAN_POINT('',(-60.17571203538,44.636081375977,37.43));
#792 = VECTOR('',#793,1.);
#793 = DIRECTION('',(-2.039804480047E-16,-8.24134505515E-17,-1.));
#794 = ORIENTED_EDGE('',*,*,#795,.T.);
#795 = EDGE_CURVE('',#788,#525,#796,.T.);
#796 = LINE('',#797,#798);
#797 = CARTESIAN_POINT('',(-60.17571203538,44.636081375977,-22.57));
#798 = VECTOR('',#799,1.);
#799 = DIRECTION('',(0.374606593416,-0.927183854567,0.));
#800 = PLANE('',#801);
#801 = AXIS2_PLACEMENT_3D('',#802,#803,#804);
#802 = CARTESIAN_POINT('',(-51.55976038681,23.310852720941,7.43));
#803 = DIRECTION('',(-0.927183854567,-0.374606593416,-0.));
#804 = DIRECTION('',(0.,0.,-1.));
#805 = ADVANCED_FACE('',(#806),#863,.T.);
#806 = FACE_BOUND('',#807,.T.);
#807 = EDGE_LOOP('',(#808,#816,#817,#825,#833,#841,#849,#857));
#808 = ORIENTED_EDGE('',*,*,#809,.T.);
#809 = EDGE_CURVE('',#810,#566,#812,.T.);
#810 = VERTEX_POINT('',#811);
#811 = CARTESIAN_POINT('',(-64.57983534457,42.856700057251,-22.57));
#812 = LINE('',#813,#814);
#813 = CARTESIAN_POINT('',(-64.57983534457,42.856700057251,-22.57));
#814 = VECTOR('',#815,1.);
#815 = DIRECTION('',(0.374606593416,-0.927183854567,0.));
#816 = ORIENTED_EDGE('',*,*,#574,.T.);
#817 = ORIENTED_EDGE('',*,*,#818,.T.);
#818 = EDGE_CURVE('',#575,#819,#821,.T.);
#819 = VERTEX_POINT('',#820);
#820 = CARTESIAN_POINT('',(-52.82524235307,13.763061476727,37.43));
#821 = LINE('',#822,#823);
#822 = CARTESIAN_POINT('',(-47.34793204744,0.206242747179,37.43));
#823 = VECTOR('',#824,1.);
#824 = DIRECTION('',(-0.374606593416,0.927183854567,0.));
#825 = ORIENTED_EDGE('',*,*,#826,.T.);
#826 = EDGE_CURVE('',#819,#827,#829,.T.);
#827 = VERTEX_POINT('',#828);
#828 = CARTESIAN_POINT('',(-52.82524235307,13.763061476727,32.43));
#829 = LINE('',#830,#831);
#830 = CARTESIAN_POINT('',(-52.82524235307,13.763061476727,22.43));
#831 = VECTOR('',#832,1.);
#832 = DIRECTION('',(1.3E-16,5.E-17,-1.));
#833 = ORIENTED_EDGE('',*,*,#834,.T.);
#834 = EDGE_CURVE('',#827,#835,#837,.T.);
#835 = VERTEX_POINT('',#836);
#836 = CARTESIAN_POINT('',(-58.96879048509,28.968876691622,32.43));
#837 = LINE('',#838,#839);
#838 = CARTESIAN_POINT('',(-50.01471453487,6.806761022751,32.43));
#839 = VECTOR('',#840,1.);
#840 = DIRECTION('',(-0.374606593416,0.927183854567,0.));
#841 = ORIENTED_EDGE('',*,*,#842,.T.);
#842 = EDGE_CURVE('',#835,#843,#845,.T.);
#843 = VERTEX_POINT('',#844);
#844 = CARTESIAN_POINT('',(-58.96879048509,28.968876691623,37.43));
#845 = LINE('',#846,#847);
#846 = CARTESIAN_POINT('',(-58.96879048509,28.968876691622,22.43));
#847 = VECTOR('',#848,1.);
#848 = DIRECTION('',(-1.3E-16,-5.E-17,1.));
#849 = ORIENTED_EDGE('',*,*,#850,.T.);
#850 = EDGE_CURVE('',#843,#851,#853,.T.);
#851 = VERTEX_POINT('',#852);
#852 = CARTESIAN_POINT('',(-64.57983534457,42.856700057251,37.43));
#853 = LINE('',#854,#855);
#854 = CARTESIAN_POINT('',(-47.34793204744,0.206242747179,37.43));
#855 = VECTOR('',#856,1.);
#856 = DIRECTION('',(-0.374606593416,0.927183854567,0.));
#857 = ORIENTED_EDGE('',*,*,#858,.T.);
#858 = EDGE_CURVE('',#851,#810,#859,.T.);
#859 = LINE('',#860,#861);
#860 = CARTESIAN_POINT('',(-64.57983534457,42.856700057251,37.43));
#861 = VECTOR('',#862,1.);
#862 = DIRECTION('',(-2.039804480047E-16,-8.24134505515E-17,-1.));
#863 = PLANE('',#864);
#864 = AXIS2_PLACEMENT_3D('',#865,#866,#867);
#865 = CARTESIAN_POINT('',(-55.963883696,21.531471402215,7.43));
#866 = DIRECTION('',(-0.927183854567,-0.374606593416,-0.));
#867 = DIRECTION('',(0.,0.,-1.));
#868 = ADVANCED_FACE('',(#869),#885,.T.);
#869 = FACE_BOUND('',#870,.T.);
#870 = EDGE_LOOP('',(#871,#877,#878,#884));
#871 = ORIENTED_EDGE('',*,*,#872,.F.);
#872 = EDGE_CURVE('',#599,#703,#873,.T.);
#873 = LINE('',#874,#875);
#874 = CARTESIAN_POINT('',(53.427911858541,13.519567191007,37.43));
#875 = VECTOR('',#876,1.);
#876 = DIRECTION('',(-0.927183854567,0.374606593416,0.));
#877 = ORIENTED_EDGE('',*,*,#647,.F.);
#878 = ORIENTED_EDGE('',*,*,#879,.T.);
#879 = EDGE_CURVE('',#640,#695,#880,.T.);
#880 = LINE('',#881,#882);
#881 = CARTESIAN_POINT('',(53.427911858541,13.519567191007,32.43));
#882 = VECTOR('',#883,1.);
#883 = DIRECTION('',(-0.927183854567,0.374606593416,0.));
#884 = ORIENTED_EDGE('',*,*,#702,.T.);
#885 = PLANE('',#886);
#886 = AXIS2_PLACEMENT_3D('',#887,#888,#889);
#887 = CARTESIAN_POINT('',(53.427911858541,13.519567191007,37.43));
#888 = DIRECTION('',(0.374606593416,0.927183854567,0.));
#889 = DIRECTION('',(-0.927183854567,0.374606593416,0.));
#890 = ADVANCED_FACE('',(#891),#902,.T.);
#891 = FACE_BOUND('',#892,.T.);
#892 = EDGE_LOOP('',(#893,#894,#895,#896));
#893 = ORIENTED_EDGE('',*,*,#694,.T.);
#894 = ORIENTED_EDGE('',*,*,#879,.F.);
#895 = ORIENTED_EDGE('',*,*,#639,.F.);
#896 = ORIENTED_EDGE('',*,*,#897,.F.);
#897 = EDGE_CURVE('',#687,#632,#898,.T.);
#898 = LINE('',#899,#900);
#899 = CARTESIAN_POINT('',(54.379230404988,30.823179329031,32.43));
#900 = VECTOR('',#901,1.);
#901 = DIRECTION('',(0.927183854567,-0.374606593416,0.));
#902 = PLANE('',#903);
#903 = AXIS2_PLACEMENT_3D('',#904,#905,#906);
#904 = CARTESIAN_POINT('',(1.13E-15,9.88568663001,32.43));
#905 = DIRECTION('',(0.,0.,1.));
#906 = DIRECTION('',(1.,0.,0.));
#907 = ADVANCED_FACE('',(#908),#919,.T.);
#908 = FACE_BOUND('',#909,.T.);
#909 = EDGE_LOOP('',(#910,#916,#917,#918));
#910 = ORIENTED_EDGE('',*,*,#911,.F.);
#911 = EDGE_CURVE('',#679,#624,#912,.T.);
#912 = LINE('',#913,#914);
#913 = CARTESIAN_POINT('',(54.379230404988,30.823179329031,37.43));
#914 = VECTOR('',#915,1.);
#915 = DIRECTION('',(0.927183854567,-0.374606593416,0.));
#916 = ORIENTED_EDGE('',*,*,#686,.T.);
#917 = ORIENTED_EDGE('',*,*,#897,.T.);
#918 = ORIENTED_EDGE('',*,*,#631,.F.);
#919 = PLANE('',#920);
#920 = AXIS2_PLACEMENT_3D('',#921,#922,#923);
#921 = CARTESIAN_POINT('',(54.379230404988,30.823179329031,37.43));
#922 = DIRECTION('',(-0.374606593416,-0.927183854567,0.));
#923 = DIRECTION('',(0.927183854567,-0.374606593416,0.));
#924 = ADVANCED_FACE('',(#925),#931,.T.);
#925 = FACE_BOUND('',#926,.T.);
#926 = EDGE_LOOP('',(#927,#928,#929,#930));
#927 = ORIENTED_EDGE('',*,*,#623,.F.);
#928 = ORIENTED_EDGE('',*,*,#731,.T.);
#929 = ORIENTED_EDGE('',*,*,#678,.T.);
#930 = ORIENTED_EDGE('',*,*,#911,.T.);
#931 = PLANE('',#932);
#932 = AXIS2_PLACEMENT_3D('',#933,#934,#935);
#933 = CARTESIAN_POINT('',(64.579835344574,42.856700057251,37.43));
#934 = DIRECTION('',(0.,0.,1.));
#935 = DIRECTION('',(-0.374606593416,-0.927183854567,0.));
#936 = ADVANCED_FACE('',(#937),#953,.T.);
#937 = FACE_BOUND('',#938,.T.);
#938 = EDGE_LOOP('',(#939,#945,#946,#952));
#939 = ORIENTED_EDGE('',*,*,#940,.T.);
#940 = EDGE_CURVE('',#851,#780,#941,.T.);
#941 = LINE('',#942,#943);
#942 = CARTESIAN_POINT('',(-64.57983534457,42.856700057251,37.43));
#943 = VECTOR('',#944,1.);
#944 = DIRECTION('',(0.927183854567,0.374606593416,0.));
#945 = ORIENTED_EDGE('',*,*,#787,.T.);
#946 = ORIENTED_EDGE('',*,*,#947,.F.);
#947 = EDGE_CURVE('',#810,#788,#948,.T.);
#948 = LINE('',#949,#950);
#949 = CARTESIAN_POINT('',(-64.57983534457,42.856700057251,-22.57));
#950 = VECTOR('',#951,1.);
#951 = DIRECTION('',(0.927183854567,0.374606593416,0.));
#952 = ORIENTED_EDGE('',*,*,#858,.F.);
#953 = PLANE('',#954);
#954 = AXIS2_PLACEMENT_3D('',#955,#956,#957);
#955 = CARTESIAN_POINT('',(-64.57983534457,42.856700057251,37.43));
#956 = DIRECTION('',(-0.374606593416,0.927183854567,0.));
#957 = DIRECTION('',(-2.039804480047E-16,-8.24134505515E-17,-1.));
#958 = ADVANCED_FACE('',(#959),#970,.T.);
#959 = FACE_BOUND('',#960,.T.);
#960 = EDGE_LOOP('',(#961,#962,#968,#969));
#961 = ORIENTED_EDGE('',*,*,#850,.F.);
#962 = ORIENTED_EDGE('',*,*,#963,.T.);
#963 = EDGE_CURVE('',#843,#772,#964,.T.);
#964 = LINE('',#965,#966);
#965 = CARTESIAN_POINT('',(-59.57145999056,28.725382405902,37.43));
#966 = VECTOR('',#967,1.);
#967 = DIRECTION('',(0.927183854567,0.374606593416,0.));
#968 = ORIENTED_EDGE('',*,*,#779,.T.);
#969 = ORIENTED_EDGE('',*,*,#940,.F.);
#970 = PLANE('',#971);
#971 = AXIS2_PLACEMENT_3D('',#972,#973,#974);
#972 = CARTESIAN_POINT('',(-47.34793204744,0.206242747179,37.43));
#973 = DIRECTION('',(0.,0.,1.));
#974 = DIRECTION('',(-0.374606593416,0.927183854567,0.));
#975 = ADVANCED_FACE('',(#976),#987,.T.);
#976 = FACE_BOUND('',#977,.T.);
#977 = EDGE_LOOP('',(#978,#979,#980,#986));
#978 = ORIENTED_EDGE('',*,*,#963,.F.);
#979 = ORIENTED_EDGE('',*,*,#842,.F.);
#980 = ORIENTED_EDGE('',*,*,#981,.T.);
#981 = EDGE_CURVE('',#835,#764,#982,.T.);
#982 = LINE('',#983,#984);
#983 = CARTESIAN_POINT('',(-59.57145999056,28.725382405902,32.43));
#984 = VECTOR('',#985,1.);
#985 = DIRECTION('',(0.927183854567,0.374606593416,0.));
#986 = ORIENTED_EDGE('',*,*,#771,.T.);
#987 = PLANE('',#988);
#988 = AXIS2_PLACEMENT_3D('',#989,#990,#991);
#989 = CARTESIAN_POINT('',(-59.57145999056,28.725382405902,37.43));
#990 = DIRECTION('',(0.374606593416,-0.927183854567,0.));
#991 = DIRECTION('',(0.927183854567,0.374606593416,0.));
#992 = ADVANCED_FACE('',(#993),#1004,.T.);
#993 = FACE_BOUND('',#994,.T.);
#994 = EDGE_LOOP('',(#995,#996,#997,#998));
#995 = ORIENTED_EDGE('',*,*,#763,.T.);
#996 = ORIENTED_EDGE('',*,*,#981,.F.);
#997 = ORIENTED_EDGE('',*,*,#834,.F.);
#998 = ORIENTED_EDGE('',*,*,#999,.F.);
#999 = EDGE_CURVE('',#756,#827,#1000,.T.);
#1000 = LINE('',#1001,#1002);
#1001 = CARTESIAN_POINT('',(-48.23568227296,15.617364114136,32.43));
#1002 = VECTOR('',#1003,1.);
#1003 = DIRECTION('',(-0.927183854567,-0.374606593416,0.));
#1004 = PLANE('',#1005);
#1005 = AXIS2_PLACEMENT_3D('',#1006,#1007,#1008);
#1006 = CARTESIAN_POINT('',(1.13E-15,9.88568663001,32.43));
#1007 = DIRECTION('',(0.,0.,1.));
#1008 = DIRECTION('',(1.,0.,0.));
#1009 = ADVANCED_FACE('',(#1010),#1021,.T.);
#1010 = FACE_BOUND('',#1011,.T.);
#1011 = EDGE_LOOP('',(#1012,#1018,#1019,#1020));
#1012 = ORIENTED_EDGE('',*,*,#1013,.F.);
#1013 = EDGE_CURVE('',#748,#819,#1014,.T.);
#1014 = LINE('',#1015,#1016);
#1015 = CARTESIAN_POINT('',(-48.23568227296,15.617364114136,37.43));
#1016 = VECTOR('',#1017,1.);
#1017 = DIRECTION('',(-0.927183854567,-0.374606593416,0.));
#1018 = ORIENTED_EDGE('',*,*,#755,.T.);
#1019 = ORIENTED_EDGE('',*,*,#999,.T.);
#1020 = ORIENTED_EDGE('',*,*,#826,.F.);
#1021 = PLANE('',#1022);
#1022 = AXIS2_PLACEMENT_3D('',#1023,#1024,#1025);
#1023 = CARTESIAN_POINT('',(-48.23568227296,15.617364114136,37.43));
#1024 = DIRECTION('',(-0.374606593416,0.927183854567,0.));
#1025 = DIRECTION('',(-0.927183854567,-0.374606593416,0.));
#1026 = ADVANCED_FACE('',(#1027),#1037,.T.);
#1027 = FACE_BOUND('',#1028,.T.);
#1028 = EDGE_LOOP('',(#1029,#1030,#1031,#1032,#1033,#1034,#1035,#1036));
#1029 = ORIENTED_EDGE('',*,*,#58,.F.);
#1030 = ORIENTED_EDGE('',*,*,#91,.F.);
#1031 = ORIENTED_EDGE('',*,*,#358,.T.);
#1032 = ORIENTED_EDGE('',*,*,#662,.T.);
#1033 = ORIENTED_EDGE('',*,*,#724,.F.);
#1034 = ORIENTED_EDGE('',*,*,#607,.F.);
#1035 = ORIENTED_EDGE('',*,*,#342,.F.);
#1036 = ORIENTED_EDGE('',*,*,#213,.T.);
#1037 = PLANE('',#1038);
#1038 = AXIS2_PLACEMENT_3D('',#1039,#1040,#1041);
#1039 = CARTESIAN_POINT('',(46.681500999571,14.265280685907,-22.57));
#1040 = DIRECTION('',(-0.,-0.,-1.));
#1041 = DIRECTION('',(-1.,0.,0.));
#1042 = ADVANCED_FACE('',(#1043),#1053,.T.);
#1043 = FACE_BOUND('',#1044,.T.);
#1044 = EDGE_LOOP('',(#1045,#1046,#1047,#1048,#1049,#1050,#1051,#1052));
#1045 = ORIENTED_EDGE('',*,*,#39,.T.);
#1046 = ORIENTED_EDGE('',*,*,#220,.F.);
#1047 = ORIENTED_EDGE('',*,*,#565,.T.);
#1048 = ORIENTED_EDGE('',*,*,#809,.F.);
#1049 = ORIENTED_EDGE('',*,*,#947,.T.);
#1050 = ORIENTED_EDGE('',*,*,#795,.T.);
#1051 = ORIENTED_EDGE('',*,*,#532,.F.);
#1052 = ORIENTED_EDGE('',*,*,#98,.T.);
#1053 = PLANE('',#1054);
#1054 = AXIS2_PLACEMENT_3D('',#1055,#1056,#1057);
#1055 = CARTESIAN_POINT('',(-46.68150099957,14.265280685907,-22.57));
#1056 = DIRECTION('',(-0.,-0.,-1.));
#1057 = DIRECTION('',(-1.,0.,0.));
#1058 = ADVANCED_FACE('',(#1059),#1069,.T.);
#1059 = FACE_BOUND('',#1060,.T.);
#1060 = EDGE_LOOP('',(#1061,#1062,#1063,#1064,#1065,#1066,#1067,#1068));
#1061 = ORIENTED_EDGE('',*,*,#178,.T.);
#1062 = ORIENTED_EDGE('',*,*,#391,.T.);
#1063 = ORIENTED_EDGE('',*,*,#300,.F.);
#1064 = ORIENTED_EDGE('',*,*,#325,.T.);
#1065 = ORIENTED_EDGE('',*,*,#598,.F.);
#1066 = ORIENTED_EDGE('',*,*,#872,.T.);
#1067 = ORIENTED_EDGE('',*,*,#710,.T.);
#1068 = ORIENTED_EDGE('',*,*,#375,.F.);
#1069 = PLANE('',#1070);
#1070 = AXIS2_PLACEMENT_3D('',#1071,#1072,#1073);
#1071 = CARTESIAN_POINT('',(40.877881757451,2.496908441206,37.43));
#1072 = DIRECTION('',(-3.1E-16,3.8E-16,1.));
#1073 = DIRECTION('',(-7.036018915162E-48,1.,-3.8E-16));
#1074 = ADVANCED_FACE('',(#1075),#1085,.T.);
#1075 = FACE_BOUND('',#1076,.T.);
#1076 = EDGE_LOOP('',(#1077,#1078,#1079,#1080,#1081,#1082,#1083,#1084));
#1077 = ORIENTED_EDGE('',*,*,#114,.T.);
#1078 = ORIENTED_EDGE('',*,*,#515,.T.);
#1079 = ORIENTED_EDGE('',*,*,#747,.T.);
#1080 = ORIENTED_EDGE('',*,*,#1013,.T.);
#1081 = ORIENTED_EDGE('',*,*,#818,.F.);
#1082 = ORIENTED_EDGE('',*,*,#582,.F.);
#1083 = ORIENTED_EDGE('',*,*,#236,.F.);
#1084 = ORIENTED_EDGE('',*,*,#498,.T.);
#1085 = PLANE('',#1086);
#1086 = AXIS2_PLACEMENT_3D('',#1087,#1088,#1089);
#1087 = CARTESIAN_POINT('',(-40.87788175745,2.496908441206,37.43));
#1088 = DIRECTION('',(0.,3.E-16,1.));
#1089 = DIRECTION('',(0.,1.,-3.E-16));
#1090 = ( GEOMETRIC_REPRESENTATION_CONTEXT(3) 
GLOBAL_UNCERTAINTY_ASSIGNED_CONTEXT((#1094)) 
GLOBAL_UNIT_ASSIGNED_CONTEXT((#1091,#1092,#1093)) REPRESENTATION_CONTEXT
('Context #1','3D Context with UNIT and UNCERTAINTY') );
#1091 = ( LENGTH_UNIT() NAMED_UNIT(*) SI_UNIT(.MILLI.,.METRE.) );
#1092 = ( NAMED_UNIT(*) PLANE_ANGLE_UNIT() SI_UNIT($,.RADIAN.) );
#1093 = ( NAMED_UNIT(*) SI_UNIT($,.STERADIAN.) SOLID_ANGLE_UNIT() );
#1094 = UNCERTAINTY_MEASURE_WITH_UNIT(LENGTH_MEASURE(2.E-05),#1091,
  'distance_accuracy_value','confusion accuracy');
#1095 = CONTEXT_DEPENDENT_SHAPE_REPRESENTATION(#1096,#1098);
#1096 = ( REPRESENTATION_RELATIONSHIP('','',#32,#10) 
REPRESENTATION_RELATIONSHIP_WITH_TRANSFORMATION(#1097) 
SHAPE_REPRESENTATION_RELATIONSHIP() );
#1097 = ITEM_DEFINED_TRANSFORMATION('','',#11,#15);
#1098 = PRODUCT_DEFINITION_SHAPE('Placement','Placement of an item',
  #1099);
#1099 = NEXT_ASSEMBLY_USAGE_OCCURRENCE('1','Body','',#5,#27,$);
#1100 = PRODUCT_RELATED_PRODUCT_CATEGORY('part',$,(#29));
#1101 = MECHANICAL_DESIGN_GEOMETRIC_PRESENTATION_REPRESENTATION('',(
    #1102),#1090);
#1102 = STYLED_ITEM('color',(#1103),#33);
#1103 = PRESENTATION_STYLE_ASSIGNMENT((#1104,#1110));
#1104 = SURFACE_STYLE_USAGE(.BOTH.,#1105);
#1105 = SURFACE_SIDE_STYLE('',(#1106));
#1106 = SURFACE_STYLE_FILL_AREA(#1107);
#1107 = FILL_AREA_STYLE('',(#1108));
#1108 = FILL_AREA_STYLE_COLOUR('',#1109);
#1109 = COLOUR_RGB('',0.749019635948,0.780392170416,0.819607860991);
#1110 = CURVE_STYLE('',#1111,POSITIVE_LENGTH_MEASURE(0.1),#1112);
#1111 = DRAUGHTING_PRE_DEFINED_CURVE_FONT('continuous');
#1112 = COLOUR_RGB('',9.803921802644E-02,9.803921802644E-02,
  9.803921802644E-02);
ENDSEC;
END-ISO-10303-21;
