ISO-10303-21;
HEADER;
FILE_DESCRIPTION(('FreeCAD Model'),'2;1');
FILE_NAME('Open CASCADE Shape Model','2026-08-24T17:35:23',('Author'),(
    ''),'Open CASCADE STEP processor 7.8','FreeCAD','Unknown');
FILE_SCHEMA(('AUTOMOTIVE_DESIGN { 1 0 10303 214 1 1 1 1 }'));
ENDSEC;
DATA;
#1 = APPLICATION_PROTOCOL_DEFINITION('international standard',
  'automotive_design',2000,#2);
#2 = APPLICATION_CONTEXT(
  'core data for automotive mechanical design processes');
#3 = SHAPE_DEFINITION_REPRESENTATION(#4,#10);
#4 = PRODUCT_DEFINITION_SHAPE('','',#5);
#5 = PRODUCT_DEFINITION('design','',#6,#9);
#6 = PRODUCT_DEFINITION_FORMATION('','',#7);
#7 = PRODUCT('backing plate','backing plate','',(#8));
#8 = PRODUCT_CONTEXT('',#2,'mechanical');
#9 = PRODUCT_DEFINITION_CONTEXT('part definition',#2,'design');
#10 = SHAPE_REPRESENTATION('',(#11,#15),#19);
#11 = AXIS2_PLACEMENT_3D('',#12,#13,#14);
#12 = CARTESIAN_POINT('',(0.,0.,0.));
#13 = DIRECTION('',(0.,0.,1.));
#14 = DIRECTION('',(1.,0.,-0.));
#15 = AXIS2_PLACEMENT_3D('',#16,#17,#18);
#16 = CARTESIAN_POINT('',(0.,0.,0.));
#17 = DIRECTION('',(0.,0.,1.));
#18 = DIRECTION('',(1.,0.,0.));
#19 = ( GEOMETRIC_REPRESENTATION_CONTEXT(3) 
GLOBAL_UNCERTAINTY_ASSIGNED_CONTEXT((#23)) GLOBAL_UNIT_ASSIGNED_CONTEXT(
(#20,#21,#22)) REPRESENTATION_CONTEXT('Context #1',
  '3D Context with UNIT and UNCERTAINTY') );
#20 = ( LENGTH_UNIT() NAMED_UNIT(*) SI_UNIT(.MILLI.,.METRE.) );
#21 = ( NAMED_UNIT(*) PLANE_ANGLE_UNIT() SI_UNIT($,.RADIAN.) );
#22 = ( NAMED_UNIT(*) SI_UNIT($,.STERADIAN.) SOLID_ANGLE_UNIT() );
#23 = UNCERTAINTY_MEASURE_WITH_UNIT(LENGTH_MEASURE(1.E-07),#20,
  'distance_accuracy_value','confusion accuracy');
#24 = PRODUCT_RELATED_PRODUCT_CATEGORY('part',$,(#7));
#25 = SHAPE_DEFINITION_REPRESENTATION(#26,#32);
#26 = PRODUCT_DEFINITION_SHAPE('','',#27);
#27 = PRODUCT_DEFINITION('design','',#28,#31);
#28 = PRODUCT_DEFINITION_FORMATION('','',#29);
#29 = PRODUCT('plate','plate','',(#30));
#30 = PRODUCT_CONTEXT('',#2,'mechanical');
#31 = PRODUCT_DEFINITION_CONTEXT('part definition',#2,'design');
#32 = ADVANCED_BREP_SHAPE_REPRESENTATION('',(#11,#33),#1041);
#33 = MANIFOLD_SOLID_BREP('',#34);
#34 = CLOSED_SHELL('',(#35,#75,#106,#137,#168,#199,#230,#261,#292,#323,
    #354,#385,#416,#447,#478,#509,#540,#571,#602,#633,#664,#695,#726,
    #757,#788,#819,#850,#881,#912,#943,#965,#1003));
#35 = ADVANCED_FACE('',(#36),#70,.T.);
#36 = FACE_BOUND('',#37,.T.);
#37 = EDGE_LOOP('',(#38,#48,#56,#64));
#38 = ORIENTED_EDGE('',*,*,#39,.T.);
#39 = EDGE_CURVE('',#40,#42,#44,.T.);
#40 = VERTEX_POINT('',#41);
#41 = CARTESIAN_POINT('',(39.938875706645,0.2,37.43));
#42 = VERTEX_POINT('',#43);
#43 = CARTESIAN_POINT('',(39.938875706645,0.2,32.68));
#44 = LINE('',#45,#46);
#45 = CARTESIAN_POINT('',(39.938875706645,0.2,37.43));
#46 = VECTOR('',#47,1.);
#47 = DIRECTION('',(-0.,-0.,-1.));
#48 = ORIENTED_EDGE('',*,*,#49,.T.);
#49 = EDGE_CURVE('',#42,#50,#52,.T.);
#50 = VERTEX_POINT('',#51);
#51 = CARTESIAN_POINT('',(42.94380873825,1.985624065904,32.68));
#52 = LINE('',#53,#54);
#53 = CARTESIAN_POINT('',(39.938875706645,0.2,32.68));
#54 = VECTOR('',#55,1.);
#55 = DIRECTION('',(0.85967320323,0.510844383005,0.));
#56 = ORIENTED_EDGE('',*,*,#57,.F.);
#57 = EDGE_CURVE('',#58,#50,#60,.T.);
#58 = VERTEX_POINT('',#59);
#59 = CARTESIAN_POINT('',(42.94380873825,1.985624065904,37.43));
#60 = LINE('',#61,#62);
#61 = CARTESIAN_POINT('',(42.94380873825,1.985624065904,37.43));
#62 = VECTOR('',#63,1.);
#63 = DIRECTION('',(-0.,-0.,-1.));
#64 = ORIENTED_EDGE('',*,*,#65,.F.);
#65 = EDGE_CURVE('',#40,#58,#66,.T.);
#66 = LINE('',#67,#68);
#67 = CARTESIAN_POINT('',(39.938875706645,0.2,37.43));
#68 = VECTOR('',#69,1.);
#69 = DIRECTION('',(0.85967320323,0.510844383005,0.));
#70 = PLANE('',#71);
#71 = AXIS2_PLACEMENT_3D('',#72,#73,#74);
#72 = CARTESIAN_POINT('',(39.938875706645,0.2,37.43));
#73 = DIRECTION('',(0.510844383005,-0.85967320323,0.));
#74 = DIRECTION('',(0.85967320323,0.510844383005,0.));
#75 = ADVANCED_FACE('',(#76),#101,.T.);
#76 = FACE_BOUND('',#77,.T.);
#77 = EDGE_LOOP('',(#78,#79,#87,#95));
#78 = ORIENTED_EDGE('',*,*,#57,.T.);
#79 = ORIENTED_EDGE('',*,*,#80,.T.);
#80 = EDGE_CURVE('',#50,#81,#83,.T.);
#81 = VERTEX_POINT('',#82);
#82 = CARTESIAN_POINT('',(46.667049000064,11.200714113731,32.68));
#83 = LINE('',#84,#85);
#84 = CARTESIAN_POINT('',(42.94380873825,1.985624065904,32.68));
#85 = VECTOR('',#86,1.);
#86 = DIRECTION('',(0.37461543408,0.927180282658,0.));
#87 = ORIENTED_EDGE('',*,*,#88,.F.);
#88 = EDGE_CURVE('',#89,#81,#91,.T.);
#89 = VERTEX_POINT('',#90);
#90 = CARTESIAN_POINT('',(46.667049000064,11.200714113731,37.43));
#91 = LINE('',#92,#93);
#92 = CARTESIAN_POINT('',(46.667049000064,11.200714113731,37.43));
#93 = VECTOR('',#94,1.);
#94 = DIRECTION('',(-0.,-0.,-1.));
#95 = ORIENTED_EDGE('',*,*,#96,.F.);
#96 = EDGE_CURVE('',#58,#89,#97,.T.);
#97 = LINE('',#98,#99);
#98 = CARTESIAN_POINT('',(42.94380873825,1.985624065904,37.43));
#99 = VECTOR('',#100,1.);
#100 = DIRECTION('',(0.37461543408,0.927180282658,0.));
#101 = PLANE('',#102);
#102 = AXIS2_PLACEMENT_3D('',#103,#104,#105);
#103 = CARTESIAN_POINT('',(42.94380873825,1.985624065904,37.43));
#104 = DIRECTION('',(0.927180282658,-0.37461543408,0.));
#105 = DIRECTION('',(0.37461543408,0.927180282658,0.));
#106 = ADVANCED_FACE('',(#107),#132,.T.);
#107 = FACE_BOUND('',#108,.T.);
#108 = EDGE_LOOP('',(#109,#110,#118,#126));
#109 = ORIENTED_EDGE('',*,*,#88,.T.);
#110 = ORIENTED_EDGE('',*,*,#111,.T.);
#111 = EDGE_CURVE('',#81,#112,#114,.T.);
#112 = VERTEX_POINT('',#113);
#113 = CARTESIAN_POINT('',(51.071066583869,9.42132409179,32.68));
#114 = LINE('',#115,#116);
#115 = CARTESIAN_POINT('',(46.667049000064,11.200714113731,32.68));
#116 = VECTOR('',#117,1.);
#117 = DIRECTION('',(0.927180094585,-0.374615899563,0.));
#118 = ORIENTED_EDGE('',*,*,#119,.F.);
#119 = EDGE_CURVE('',#120,#112,#122,.T.);
#120 = VERTEX_POINT('',#121);
#121 = CARTESIAN_POINT('',(51.071066583869,9.42132409179,37.43));
#122 = LINE('',#123,#124);
#123 = CARTESIAN_POINT('',(51.071066583869,9.42132409179,37.43));
#124 = VECTOR('',#125,1.);
#125 = DIRECTION('',(-0.,-0.,-1.));
#126 = ORIENTED_EDGE('',*,*,#127,.F.);
#127 = EDGE_CURVE('',#89,#120,#128,.T.);
#128 = LINE('',#129,#130);
#129 = CARTESIAN_POINT('',(46.667049000064,11.200714113731,37.43));
#130 = VECTOR('',#131,1.);
#131 = DIRECTION('',(0.927180094585,-0.374615899563,0.));
#132 = PLANE('',#133);
#133 = AXIS2_PLACEMENT_3D('',#134,#135,#136);
#134 = CARTESIAN_POINT('',(46.667049000064,11.200714113731,37.43));
#135 = DIRECTION('',(-0.374615899563,-0.927180094585,0.));
#136 = DIRECTION('',(0.927180094585,-0.374615899563,0.));
#137 = ADVANCED_FACE('',(#138),#163,.T.);
#138 = FACE_BOUND('',#139,.T.);
#139 = EDGE_LOOP('',(#140,#141,#149,#157));
#140 = ORIENTED_EDGE('',*,*,#119,.T.);
#141 = ORIENTED_EDGE('',*,*,#142,.T.);
#142 = EDGE_CURVE('',#112,#143,#145,.T.);
#143 = VERTEX_POINT('',#144);
#144 = CARTESIAN_POINT('',(57.064772078251,24.256265764184,32.68));
#145 = LINE('',#146,#147);
#146 = CARTESIAN_POINT('',(51.071066583869,9.42132409179,32.68));
#147 = VECTOR('',#148,1.);
#148 = DIRECTION('',(0.374606593416,0.927183854567,0.));
#149 = ORIENTED_EDGE('',*,*,#150,.F.);
#150 = EDGE_CURVE('',#151,#143,#153,.T.);
#151 = VERTEX_POINT('',#152);
#152 = CARTESIAN_POINT('',(57.064772078251,24.256265764184,37.43));
#153 = LINE('',#154,#155);
#154 = CARTESIAN_POINT('',(57.064772078251,24.256265764184,37.43));
#155 = VECTOR('',#156,1.);
#156 = DIRECTION('',(-0.,-0.,-1.));
#157 = ORIENTED_EDGE('',*,*,#158,.F.);
#158 = EDGE_CURVE('',#120,#151,#159,.T.);
#159 = LINE('',#160,#161);
#160 = CARTESIAN_POINT('',(51.071066583869,9.42132409179,37.43));
#161 = VECTOR('',#162,1.);
#162 = DIRECTION('',(0.374606593416,0.927183854567,0.));
#163 = PLANE('',#164);
#164 = AXIS2_PLACEMENT_3D('',#165,#166,#167);
#165 = CARTESIAN_POINT('',(51.071066583869,9.42132409179,37.43));
#166 = DIRECTION('',(0.927183854567,-0.374606593416,0.));
#167 = DIRECTION('',(0.374606593416,0.927183854567,0.));
#168 = ADVANCED_FACE('',(#169),#194,.T.);
#169 = FACE_BOUND('',#170,.T.);
#170 = EDGE_LOOP('',(#171,#172,#180,#188));
#171 = ORIENTED_EDGE('',*,*,#150,.T.);
#172 = ORIENTED_EDGE('',*,*,#173,.T.);
#173 = EDGE_CURVE('',#143,#174,#176,.T.);
#174 = VERTEX_POINT('',#175);
#175 = CARTESIAN_POINT('',(52.660895945342,26.035598636254,32.68));
#176 = LINE('',#177,#178);
#177 = CARTESIAN_POINT('',(57.064772078251,24.256265764184,32.68));
#178 = VECTOR('',#179,1.);
#179 = DIRECTION('',(-0.927180094464,0.374615899862,0.));
#180 = ORIENTED_EDGE('',*,*,#181,.F.);
#181 = EDGE_CURVE('',#182,#174,#184,.T.);
#182 = VERTEX_POINT('',#183);
#183 = CARTESIAN_POINT('',(52.660895945342,26.035598636254,37.43));
#184 = LINE('',#185,#186);
#185 = CARTESIAN_POINT('',(52.660895945342,26.035598636254,37.43));
#186 = VECTOR('',#187,1.);
#187 = DIRECTION('',(-0.,-0.,-1.));
#188 = ORIENTED_EDGE('',*,*,#189,.F.);
#189 = EDGE_CURVE('',#151,#182,#190,.T.);
#190 = LINE('',#191,#192);
#191 = CARTESIAN_POINT('',(57.064772078251,24.256265764184,37.43));
#192 = VECTOR('',#193,1.);
#193 = DIRECTION('',(-0.927180094464,0.374615899862,0.));
#194 = PLANE('',#195);
#195 = AXIS2_PLACEMENT_3D('',#196,#197,#198);
#196 = CARTESIAN_POINT('',(57.064772078251,24.256265764184,37.43));
#197 = DIRECTION('',(0.374615899862,0.927180094464,0.));
#198 = DIRECTION('',(-0.927180094464,0.374615899862,0.));
#199 = ADVANCED_FACE('',(#200),#225,.T.);
#200 = FACE_BOUND('',#201,.T.);
#201 = EDGE_LOOP('',(#202,#203,#211,#219));
#202 = ORIENTED_EDGE('',*,*,#181,.T.);
#203 = ORIENTED_EDGE('',*,*,#204,.T.);
#204 = EDGE_CURVE('',#174,#205,#207,.T.);
#205 = VERTEX_POINT('',#206);
#206 = CARTESIAN_POINT('',(55.65781941798,33.453040897515,32.68));
#207 = LINE('',#208,#209);
#208 = CARTESIAN_POINT('',(52.660895945342,26.035598636254,32.68));
#209 = VECTOR('',#210,1.);
#210 = DIRECTION('',(0.37461543408,0.927180282658,0.));
#211 = ORIENTED_EDGE('',*,*,#212,.F.);
#212 = EDGE_CURVE('',#213,#205,#215,.T.);
#213 = VERTEX_POINT('',#214);
#214 = CARTESIAN_POINT('',(55.65781941798,33.453040897515,37.43));
#215 = LINE('',#216,#217);
#216 = CARTESIAN_POINT('',(55.65781941798,33.453040897515,37.43));
#217 = VECTOR('',#218,1.);
#218 = DIRECTION('',(-0.,-0.,-1.));
#219 = ORIENTED_EDGE('',*,*,#220,.F.);
#220 = EDGE_CURVE('',#182,#213,#221,.T.);
#221 = LINE('',#222,#223);
#222 = CARTESIAN_POINT('',(52.660895945342,26.035598636254,37.43));
#223 = VECTOR('',#224,1.);
#224 = DIRECTION('',(0.37461543408,0.927180282658,0.));
#225 = PLANE('',#226);
#226 = AXIS2_PLACEMENT_3D('',#227,#228,#229);
#227 = CARTESIAN_POINT('',(52.660895945342,26.035598636254,37.43));
#228 = DIRECTION('',(0.927180282658,-0.37461543408,0.));
#229 = DIRECTION('',(0.37461543408,0.927180282658,0.));
#230 = ADVANCED_FACE('',(#231),#256,.T.);
#231 = FACE_BOUND('',#232,.T.);
#232 = EDGE_LOOP('',(#233,#234,#242,#250));
#233 = ORIENTED_EDGE('',*,*,#212,.T.);
#234 = ORIENTED_EDGE('',*,*,#235,.T.);
#235 = EDGE_CURVE('',#205,#236,#238,.T.);
#236 = VERTEX_POINT('',#237);
#237 = CARTESIAN_POINT('',(60.061624825442,31.673736600381,32.68));
#238 = LINE('',#239,#240);
#239 = CARTESIAN_POINT('',(55.65781941798,33.453040897515,32.68));
#240 = VECTOR('',#241,1.);
#241 = DIRECTION('',(0.927180094404,-0.374615900011,0.));
#242 = ORIENTED_EDGE('',*,*,#243,.F.);
#243 = EDGE_CURVE('',#244,#236,#246,.T.);
#244 = VERTEX_POINT('',#245);
#245 = CARTESIAN_POINT('',(60.061624825442,31.673736600381,37.43));
#246 = LINE('',#247,#248);
#247 = CARTESIAN_POINT('',(60.061624825442,31.673736600381,37.43));
#248 = VECTOR('',#249,1.);
#249 = DIRECTION('',(-0.,-0.,-1.));
#250 = ORIENTED_EDGE('',*,*,#251,.F.);
#251 = EDGE_CURVE('',#213,#244,#252,.T.);
#252 = LINE('',#253,#254);
#253 = CARTESIAN_POINT('',(55.65781941798,33.453040897515,37.43));
#254 = VECTOR('',#255,1.);
#255 = DIRECTION('',(0.927180094404,-0.374615900011,0.));
#256 = PLANE('',#257);
#257 = AXIS2_PLACEMENT_3D('',#258,#259,#260);
#258 = CARTESIAN_POINT('',(55.65781941798,33.453040897515,37.43));
#259 = DIRECTION('',(-0.374615900011,-0.927180094404,0.));
#260 = DIRECTION('',(0.927180094404,-0.374615900011,0.));
#261 = ADVANCED_FACE('',(#262),#287,.T.);
#262 = FACE_BOUND('',#263,.T.);
#263 = EDGE_LOOP('',(#264,#265,#273,#281));
#264 = ORIENTED_EDGE('',*,*,#243,.T.);
#265 = ORIENTED_EDGE('',*,*,#266,.T.);
#266 = EDGE_CURVE('',#236,#267,#269,.T.);
#267 = VERTEX_POINT('',#268);
#268 = CARTESIAN_POINT('',(66.055330319824,46.508678272775,32.68));
#269 = LINE('',#270,#271);
#270 = CARTESIAN_POINT('',(60.061624825442,31.673736600381,32.68));
#271 = VECTOR('',#272,1.);
#272 = DIRECTION('',(0.374606593416,0.927183854567,0.));
#273 = ORIENTED_EDGE('',*,*,#274,.F.);
#274 = EDGE_CURVE('',#275,#267,#277,.T.);
#275 = VERTEX_POINT('',#276);
#276 = CARTESIAN_POINT('',(66.055330319824,46.508678272775,37.43));
#277 = LINE('',#278,#279);
#278 = CARTESIAN_POINT('',(66.055330319824,46.508678272775,37.43));
#279 = VECTOR('',#280,1.);
#280 = DIRECTION('',(-0.,-0.,-1.));
#281 = ORIENTED_EDGE('',*,*,#282,.F.);
#282 = EDGE_CURVE('',#244,#275,#283,.T.);
#283 = LINE('',#284,#285);
#284 = CARTESIAN_POINT('',(60.061624825442,31.673736600381,37.43));
#285 = VECTOR('',#286,1.);
#286 = DIRECTION('',(0.374606593416,0.927183854567,0.));
#287 = PLANE('',#288);
#288 = AXIS2_PLACEMENT_3D('',#289,#290,#291);
#289 = CARTESIAN_POINT('',(60.061624825442,31.673736600381,37.43));
#290 = DIRECTION('',(0.927183854567,-0.374606593416,0.));
#291 = DIRECTION('',(0.374606593416,0.927183854567,0.));
#292 = ADVANCED_FACE('',(#293),#318,.T.);
#293 = FACE_BOUND('',#294,.T.);
#294 = EDGE_LOOP('',(#295,#296,#304,#312));
#295 = ORIENTED_EDGE('',*,*,#274,.T.);
#296 = ORIENTED_EDGE('',*,*,#297,.T.);
#297 = EDGE_CURVE('',#267,#298,#300,.T.);
#298 = VERTEX_POINT('',#299);
#299 = CARTESIAN_POINT('',(61.651666363258,48.287925420038,32.68));
#300 = LINE('',#301,#302);
#301 = CARTESIAN_POINT('',(66.055330319824,46.508678272775,32.68));
#302 = VECTOR('',#303,1.);
#303 = DIRECTION('',(-0.927180094283,0.37461590031,0.));
#304 = ORIENTED_EDGE('',*,*,#305,.F.);
#305 = EDGE_CURVE('',#306,#298,#308,.T.);
#306 = VERTEX_POINT('',#307);
#307 = CARTESIAN_POINT('',(61.651666363258,48.287925420038,37.43));
#308 = LINE('',#309,#310);
#309 = CARTESIAN_POINT('',(61.651666363258,48.287925420038,37.43));
#310 = VECTOR('',#311,1.);
#311 = DIRECTION('',(-0.,-0.,-1.));
#312 = ORIENTED_EDGE('',*,*,#313,.F.);
#313 = EDGE_CURVE('',#275,#306,#314,.T.);
#314 = LINE('',#315,#316);
#315 = CARTESIAN_POINT('',(66.055330319824,46.508678272775,37.43));
#316 = VECTOR('',#317,1.);
#317 = DIRECTION('',(-0.927180094283,0.37461590031,0.));
#318 = PLANE('',#319);
#319 = AXIS2_PLACEMENT_3D('',#320,#321,#322);
#320 = CARTESIAN_POINT('',(66.055330319824,46.508678272775,37.43));
#321 = DIRECTION('',(0.37461590031,0.927180094283,0.));
#322 = DIRECTION('',(-0.927180094283,0.37461590031,0.));
#323 = ADVANCED_FACE('',(#324),#349,.T.);
#324 = FACE_BOUND('',#325,.T.);
#325 = EDGE_LOOP('',(#326,#327,#335,#343));
#326 = ORIENTED_EDGE('',*,*,#305,.T.);
#327 = ORIENTED_EDGE('',*,*,#328,.T.);
#328 = EDGE_CURVE('',#298,#329,#331,.T.);
#329 = VERTEX_POINT('',#330);
#330 = CARTESIAN_POINT('',(65.286815472798,57.284988200338,32.68));
#331 = LINE('',#332,#333);
#332 = CARTESIAN_POINT('',(61.651666363258,48.287925420038,32.68));
#333 = VECTOR('',#334,1.);
#334 = DIRECTION('',(0.37461543408,0.927180282658,0.));
#335 = ORIENTED_EDGE('',*,*,#336,.F.);
#336 = EDGE_CURVE('',#337,#329,#339,.T.);
#337 = VERTEX_POINT('',#338);
#338 = CARTESIAN_POINT('',(65.286815472798,57.284988200338,37.43));
#339 = LINE('',#340,#341);
#340 = CARTESIAN_POINT('',(65.286815472798,57.284988200338,37.43));
#341 = VECTOR('',#342,1.);
#342 = DIRECTION('',(-0.,-0.,-1.));
#343 = ORIENTED_EDGE('',*,*,#344,.F.);
#344 = EDGE_CURVE('',#306,#337,#345,.T.);
#345 = LINE('',#346,#347);
#346 = CARTESIAN_POINT('',(61.651666363258,48.287925420038,37.43));
#347 = VECTOR('',#348,1.);
#348 = DIRECTION('',(0.37461543408,0.927180282658,0.));
#349 = PLANE('',#350);
#350 = AXIS2_PLACEMENT_3D('',#351,#352,#353);
#351 = CARTESIAN_POINT('',(61.651666363258,48.287925420038,37.43));
#352 = DIRECTION('',(0.927180282658,-0.37461543408,0.));
#353 = DIRECTION('',(0.37461543408,0.927180282658,0.));
#354 = ADVANCED_FACE('',(#355),#380,.T.);
#355 = FACE_BOUND('',#356,.T.);
#356 = EDGE_LOOP('',(#357,#358,#366,#374));
#357 = ORIENTED_EDGE('',*,*,#336,.T.);
#358 = ORIENTED_EDGE('',*,*,#359,.T.);
#359 = EDGE_CURVE('',#329,#360,#362,.T.);
#360 = VERTEX_POINT('',#361);
#361 = CARTESIAN_POINT('',(-65.28681547279,57.284988200338,32.68));
#362 = LINE('',#363,#364);
#363 = CARTESIAN_POINT('',(65.286815472798,57.284988200338,32.68));
#364 = VECTOR('',#365,1.);
#365 = DIRECTION('',(-1.,0.,0.));
#366 = ORIENTED_EDGE('',*,*,#367,.F.);
#367 = EDGE_CURVE('',#368,#360,#370,.T.);
#368 = VERTEX_POINT('',#369);
#369 = CARTESIAN_POINT('',(-65.28681547279,57.284988200338,37.43));
#370 = LINE('',#371,#372);
#371 = CARTESIAN_POINT('',(-65.28681547279,57.284988200338,37.43));
#372 = VECTOR('',#373,1.);
#373 = DIRECTION('',(-0.,-0.,-1.));
#374 = ORIENTED_EDGE('',*,*,#375,.F.);
#375 = EDGE_CURVE('',#337,#368,#376,.T.);
#376 = LINE('',#377,#378);
#377 = CARTESIAN_POINT('',(65.286815472798,57.284988200338,37.43));
#378 = VECTOR('',#379,1.);
#379 = DIRECTION('',(-1.,0.,0.));
#380 = PLANE('',#381);
#381 = AXIS2_PLACEMENT_3D('',#382,#383,#384);
#382 = CARTESIAN_POINT('',(65.286815472798,57.284988200338,37.43));
#383 = DIRECTION('',(0.,1.,0.));
#384 = DIRECTION('',(-1.,0.,0.));
#385 = ADVANCED_FACE('',(#386),#411,.T.);
#386 = FACE_BOUND('',#387,.T.);
#387 = EDGE_LOOP('',(#388,#389,#397,#405));
#388 = ORIENTED_EDGE('',*,*,#367,.T.);
#389 = ORIENTED_EDGE('',*,*,#390,.T.);
#390 = EDGE_CURVE('',#360,#391,#393,.T.);
#391 = VERTEX_POINT('',#392);
#392 = CARTESIAN_POINT('',(-61.65166636325,48.287925420038,32.68));
#393 = LINE('',#394,#395);
#394 = CARTESIAN_POINT('',(-65.28681547279,57.284988200338,32.68));
#395 = VECTOR('',#396,1.);
#396 = DIRECTION('',(0.37461543408,-0.927180282658,0.));
#397 = ORIENTED_EDGE('',*,*,#398,.F.);
#398 = EDGE_CURVE('',#399,#391,#401,.T.);
#399 = VERTEX_POINT('',#400);
#400 = CARTESIAN_POINT('',(-61.65166636325,48.287925420038,37.43));
#401 = LINE('',#402,#403);
#402 = CARTESIAN_POINT('',(-61.65166636325,48.287925420038,37.43));
#403 = VECTOR('',#404,1.);
#404 = DIRECTION('',(-0.,-0.,-1.));
#405 = ORIENTED_EDGE('',*,*,#406,.F.);
#406 = EDGE_CURVE('',#368,#399,#407,.T.);
#407 = LINE('',#408,#409);
#408 = CARTESIAN_POINT('',(-65.28681547279,57.284988200338,37.43));
#409 = VECTOR('',#410,1.);
#410 = DIRECTION('',(0.37461543408,-0.927180282658,0.));
#411 = PLANE('',#412);
#412 = AXIS2_PLACEMENT_3D('',#413,#414,#415);
#413 = CARTESIAN_POINT('',(-65.28681547279,57.284988200338,37.43));
#414 = DIRECTION('',(-0.927180282658,-0.37461543408,0.));
#415 = DIRECTION('',(0.37461543408,-0.927180282658,0.));
#416 = ADVANCED_FACE('',(#417),#442,.T.);
#417 = FACE_BOUND('',#418,.T.);
#418 = EDGE_LOOP('',(#419,#420,#428,#436));
#419 = ORIENTED_EDGE('',*,*,#398,.T.);
#420 = ORIENTED_EDGE('',*,*,#421,.T.);
#421 = EDGE_CURVE('',#391,#422,#424,.T.);
#422 = VERTEX_POINT('',#423);
#423 = CARTESIAN_POINT('',(-66.05533031982,46.508678272775,32.68));
#424 = LINE('',#425,#426);
#425 = CARTESIAN_POINT('',(-61.65166636325,48.287925420038,32.68));
#426 = VECTOR('',#427,1.);
#427 = DIRECTION('',(-0.927180094283,-0.37461590031,0.));
#428 = ORIENTED_EDGE('',*,*,#429,.F.);
#429 = EDGE_CURVE('',#430,#422,#432,.T.);
#430 = VERTEX_POINT('',#431);
#431 = CARTESIAN_POINT('',(-66.05533031982,46.508678272775,37.43));
#432 = LINE('',#433,#434);
#433 = CARTESIAN_POINT('',(-66.05533031982,46.508678272775,37.43));
#434 = VECTOR('',#435,1.);
#435 = DIRECTION('',(-0.,-0.,-1.));
#436 = ORIENTED_EDGE('',*,*,#437,.F.);
#437 = EDGE_CURVE('',#399,#430,#438,.T.);
#438 = LINE('',#439,#440);
#439 = CARTESIAN_POINT('',(-61.65166636325,48.287925420038,37.43));
#440 = VECTOR('',#441,1.);
#441 = DIRECTION('',(-0.927180094283,-0.37461590031,0.));
#442 = PLANE('',#443);
#443 = AXIS2_PLACEMENT_3D('',#444,#445,#446);
#444 = CARTESIAN_POINT('',(-61.65166636325,48.287925420038,37.43));
#445 = DIRECTION('',(-0.37461590031,0.927180094283,0.));
#446 = DIRECTION('',(-0.927180094283,-0.37461590031,0.));
#447 = ADVANCED_FACE('',(#448),#473,.T.);
#448 = FACE_BOUND('',#449,.T.);
#449 = EDGE_LOOP('',(#450,#451,#459,#467));
#450 = ORIENTED_EDGE('',*,*,#429,.T.);
#451 = ORIENTED_EDGE('',*,*,#452,.T.);
#452 = EDGE_CURVE('',#422,#453,#455,.T.);
#453 = VERTEX_POINT('',#454);
#454 = CARTESIAN_POINT('',(-60.06162482544,31.673736600381,32.68));
#455 = LINE('',#456,#457);
#456 = CARTESIAN_POINT('',(-66.05533031982,46.508678272775,32.68));
#457 = VECTOR('',#458,1.);
#458 = DIRECTION('',(0.374606593416,-0.927183854567,0.));
#459 = ORIENTED_EDGE('',*,*,#460,.F.);
#460 = EDGE_CURVE('',#461,#453,#463,.T.);
#461 = VERTEX_POINT('',#462);
#462 = CARTESIAN_POINT('',(-60.06162482544,31.673736600381,37.43));
#463 = LINE('',#464,#465);
#464 = CARTESIAN_POINT('',(-60.06162482544,31.673736600381,37.43));
#465 = VECTOR('',#466,1.);
#466 = DIRECTION('',(-0.,-0.,-1.));
#467 = ORIENTED_EDGE('',*,*,#468,.F.);
#468 = EDGE_CURVE('',#430,#461,#469,.T.);
#469 = LINE('',#470,#471);
#470 = CARTESIAN_POINT('',(-66.05533031982,46.508678272775,37.43));
#471 = VECTOR('',#472,1.);
#472 = DIRECTION('',(0.374606593416,-0.927183854567,0.));
#473 = PLANE('',#474);
#474 = AXIS2_PLACEMENT_3D('',#475,#476,#477);
#475 = CARTESIAN_POINT('',(-66.05533031982,46.508678272775,37.43));
#476 = DIRECTION('',(-0.927183854567,-0.374606593416,0.));
#477 = DIRECTION('',(0.374606593416,-0.927183854567,0.));
#478 = ADVANCED_FACE('',(#479),#504,.T.);
#479 = FACE_BOUND('',#480,.T.);
#480 = EDGE_LOOP('',(#481,#482,#490,#498));
#481 = ORIENTED_EDGE('',*,*,#460,.T.);
#482 = ORIENTED_EDGE('',*,*,#483,.T.);
#483 = EDGE_CURVE('',#453,#484,#486,.T.);
#484 = VERTEX_POINT('',#485);
#485 = CARTESIAN_POINT('',(-55.65781941798,33.453040897515,32.68));
#486 = LINE('',#487,#488);
#487 = CARTESIAN_POINT('',(-60.06162482544,31.673736600381,32.68));
#488 = VECTOR('',#489,1.);
#489 = DIRECTION('',(0.927180094404,0.374615900011,0.));
#490 = ORIENTED_EDGE('',*,*,#491,.F.);
#491 = EDGE_CURVE('',#492,#484,#494,.T.);
#492 = VERTEX_POINT('',#493);
#493 = CARTESIAN_POINT('',(-55.65781941798,33.453040897515,37.43));
#494 = LINE('',#495,#496);
#495 = CARTESIAN_POINT('',(-55.65781941798,33.453040897515,37.43));
#496 = VECTOR('',#497,1.);
#497 = DIRECTION('',(-0.,-0.,-1.));
#498 = ORIENTED_EDGE('',*,*,#499,.F.);
#499 = EDGE_CURVE('',#461,#492,#500,.T.);
#500 = LINE('',#501,#502);
#501 = CARTESIAN_POINT('',(-60.06162482544,31.673736600381,37.43));
#502 = VECTOR('',#503,1.);
#503 = DIRECTION('',(0.927180094404,0.374615900011,0.));
#504 = PLANE('',#505);
#505 = AXIS2_PLACEMENT_3D('',#506,#507,#508);
#506 = CARTESIAN_POINT('',(-60.06162482544,31.673736600381,37.43));
#507 = DIRECTION('',(0.374615900011,-0.927180094404,0.));
#508 = DIRECTION('',(0.927180094404,0.374615900011,0.));
#509 = ADVANCED_FACE('',(#510),#535,.T.);
#510 = FACE_BOUND('',#511,.T.);
#511 = EDGE_LOOP('',(#512,#513,#521,#529));
#512 = ORIENTED_EDGE('',*,*,#491,.T.);
#513 = ORIENTED_EDGE('',*,*,#514,.T.);
#514 = EDGE_CURVE('',#484,#515,#517,.T.);
#515 = VERTEX_POINT('',#516);
#516 = CARTESIAN_POINT('',(-52.66089594534,26.035598636254,32.68));
#517 = LINE('',#518,#519);
#518 = CARTESIAN_POINT('',(-55.65781941798,33.453040897515,32.68));
#519 = VECTOR('',#520,1.);
#520 = DIRECTION('',(0.37461543408,-0.927180282658,0.));
#521 = ORIENTED_EDGE('',*,*,#522,.F.);
#522 = EDGE_CURVE('',#523,#515,#525,.T.);
#523 = VERTEX_POINT('',#524);
#524 = CARTESIAN_POINT('',(-52.66089594534,26.035598636254,37.43));
#525 = LINE('',#526,#527);
#526 = CARTESIAN_POINT('',(-52.66089594534,26.035598636254,37.43));
#527 = VECTOR('',#528,1.);
#528 = DIRECTION('',(-0.,-0.,-1.));
#529 = ORIENTED_EDGE('',*,*,#530,.F.);
#530 = EDGE_CURVE('',#492,#523,#531,.T.);
#531 = LINE('',#532,#533);
#532 = CARTESIAN_POINT('',(-55.65781941798,33.453040897515,37.43));
#533 = VECTOR('',#534,1.);
#534 = DIRECTION('',(0.37461543408,-0.927180282658,0.));
#535 = PLANE('',#536);
#536 = AXIS2_PLACEMENT_3D('',#537,#538,#539);
#537 = CARTESIAN_POINT('',(-55.65781941798,33.453040897515,37.43));
#538 = DIRECTION('',(-0.927180282658,-0.37461543408,0.));
#539 = DIRECTION('',(0.37461543408,-0.927180282658,0.));
#540 = ADVANCED_FACE('',(#541),#566,.T.);
#541 = FACE_BOUND('',#542,.T.);
#542 = EDGE_LOOP('',(#543,#544,#552,#560));
#543 = ORIENTED_EDGE('',*,*,#522,.T.);
#544 = ORIENTED_EDGE('',*,*,#545,.T.);
#545 = EDGE_CURVE('',#515,#546,#548,.T.);
#546 = VERTEX_POINT('',#547);
#547 = CARTESIAN_POINT('',(-57.06477207825,24.256265764184,32.68));
#548 = LINE('',#549,#550);
#549 = CARTESIAN_POINT('',(-52.66089594534,26.035598636254,32.68));
#550 = VECTOR('',#551,1.);
#551 = DIRECTION('',(-0.927180094464,-0.374615899862,0.));
#552 = ORIENTED_EDGE('',*,*,#553,.F.);
#553 = EDGE_CURVE('',#554,#546,#556,.T.);
#554 = VERTEX_POINT('',#555);
#555 = CARTESIAN_POINT('',(-57.06477207825,24.256265764184,37.43));
#556 = LINE('',#557,#558);
#557 = CARTESIAN_POINT('',(-57.06477207825,24.256265764184,37.43));
#558 = VECTOR('',#559,1.);
#559 = DIRECTION('',(-0.,-0.,-1.));
#560 = ORIENTED_EDGE('',*,*,#561,.F.);
#561 = EDGE_CURVE('',#523,#554,#562,.T.);
#562 = LINE('',#563,#564);
#563 = CARTESIAN_POINT('',(-52.66089594534,26.035598636254,37.43));
#564 = VECTOR('',#565,1.);
#565 = DIRECTION('',(-0.927180094464,-0.374615899862,0.));
#566 = PLANE('',#567);
#567 = AXIS2_PLACEMENT_3D('',#568,#569,#570);
#568 = CARTESIAN_POINT('',(-52.66089594534,26.035598636254,37.43));
#569 = DIRECTION('',(-0.374615899862,0.927180094464,0.));
#570 = DIRECTION('',(-0.927180094464,-0.374615899862,0.));
#571 = ADVANCED_FACE('',(#572),#597,.T.);
#572 = FACE_BOUND('',#573,.T.);
#573 = EDGE_LOOP('',(#574,#575,#583,#591));
#574 = ORIENTED_EDGE('',*,*,#553,.T.);
#575 = ORIENTED_EDGE('',*,*,#576,.T.);
#576 = EDGE_CURVE('',#546,#577,#579,.T.);
#577 = VERTEX_POINT('',#578);
#578 = CARTESIAN_POINT('',(-51.07106658386,9.42132409179,32.68));
#579 = LINE('',#580,#581);
#580 = CARTESIAN_POINT('',(-57.06477207825,24.256265764184,32.68));
#581 = VECTOR('',#582,1.);
#582 = DIRECTION('',(0.374606593416,-0.927183854567,0.));
#583 = ORIENTED_EDGE('',*,*,#584,.F.);
#584 = EDGE_CURVE('',#585,#577,#587,.T.);
#585 = VERTEX_POINT('',#586);
#586 = CARTESIAN_POINT('',(-51.07106658386,9.42132409179,37.43));
#587 = LINE('',#588,#589);
#588 = CARTESIAN_POINT('',(-51.07106658386,9.42132409179,37.43));
#589 = VECTOR('',#590,1.);
#590 = DIRECTION('',(-0.,-0.,-1.));
#591 = ORIENTED_EDGE('',*,*,#592,.F.);
#592 = EDGE_CURVE('',#554,#585,#593,.T.);
#593 = LINE('',#594,#595);
#594 = CARTESIAN_POINT('',(-57.06477207825,24.256265764184,37.43));
#595 = VECTOR('',#596,1.);
#596 = DIRECTION('',(0.374606593416,-0.927183854567,0.));
#597 = PLANE('',#598);
#598 = AXIS2_PLACEMENT_3D('',#599,#600,#601);
#599 = CARTESIAN_POINT('',(-57.06477207825,24.256265764184,37.43));
#600 = DIRECTION('',(-0.927183854567,-0.374606593416,0.));
#601 = DIRECTION('',(0.374606593416,-0.927183854567,0.));
#602 = ADVANCED_FACE('',(#603),#628,.T.);
#603 = FACE_BOUND('',#604,.T.);
#604 = EDGE_LOOP('',(#605,#606,#614,#622));
#605 = ORIENTED_EDGE('',*,*,#584,.T.);
#606 = ORIENTED_EDGE('',*,*,#607,.T.);
#607 = EDGE_CURVE('',#577,#608,#610,.T.);
#608 = VERTEX_POINT('',#609);
#609 = CARTESIAN_POINT('',(-46.66704900006,11.200714113731,32.68));
#610 = LINE('',#611,#612);
#611 = CARTESIAN_POINT('',(-51.07106658386,9.42132409179,32.68));
#612 = VECTOR('',#613,1.);
#613 = DIRECTION('',(0.927180094585,0.374615899563,0.));
#614 = ORIENTED_EDGE('',*,*,#615,.F.);
#615 = EDGE_CURVE('',#616,#608,#618,.T.);
#616 = VERTEX_POINT('',#617);
#617 = CARTESIAN_POINT('',(-46.66704900006,11.200714113731,37.43));
#618 = LINE('',#619,#620);
#619 = CARTESIAN_POINT('',(-46.66704900006,11.200714113731,37.43));
#620 = VECTOR('',#621,1.);
#621 = DIRECTION('',(-0.,-0.,-1.));
#622 = ORIENTED_EDGE('',*,*,#623,.F.);
#623 = EDGE_CURVE('',#585,#616,#624,.T.);
#624 = LINE('',#625,#626);
#625 = CARTESIAN_POINT('',(-51.07106658386,9.42132409179,37.43));
#626 = VECTOR('',#627,1.);
#627 = DIRECTION('',(0.927180094585,0.374615899563,0.));
#628 = PLANE('',#629);
#629 = AXIS2_PLACEMENT_3D('',#630,#631,#632);
#630 = CARTESIAN_POINT('',(-51.07106658386,9.42132409179,37.43));
#631 = DIRECTION('',(0.374615899563,-0.927180094585,0.));
#632 = DIRECTION('',(0.927180094585,0.374615899563,0.));
#633 = ADVANCED_FACE('',(#634),#659,.T.);
#634 = FACE_BOUND('',#635,.T.);
#635 = EDGE_LOOP('',(#636,#637,#645,#653));
#636 = ORIENTED_EDGE('',*,*,#615,.T.);
#637 = ORIENTED_EDGE('',*,*,#638,.T.);
#638 = EDGE_CURVE('',#608,#639,#641,.T.);
#639 = VERTEX_POINT('',#640);
#640 = CARTESIAN_POINT('',(-42.94380873825,1.985624065904,32.68));
#641 = LINE('',#642,#643);
#642 = CARTESIAN_POINT('',(-46.66704900006,11.200714113731,32.68));
#643 = VECTOR('',#644,1.);
#644 = DIRECTION('',(0.37461543408,-0.927180282658,0.));
#645 = ORIENTED_EDGE('',*,*,#646,.F.);
#646 = EDGE_CURVE('',#647,#639,#649,.T.);
#647 = VERTEX_POINT('',#648);
#648 = CARTESIAN_POINT('',(-42.94380873825,1.985624065904,37.43));
#649 = LINE('',#650,#651);
#650 = CARTESIAN_POINT('',(-42.94380873825,1.985624065904,37.43));
#651 = VECTOR('',#652,1.);
#652 = DIRECTION('',(-0.,-0.,-1.));
#653 = ORIENTED_EDGE('',*,*,#654,.F.);
#654 = EDGE_CURVE('',#616,#647,#655,.T.);
#655 = LINE('',#656,#657);
#656 = CARTESIAN_POINT('',(-46.66704900006,11.200714113731,37.43));
#657 = VECTOR('',#658,1.);
#658 = DIRECTION('',(0.37461543408,-0.927180282658,0.));
#659 = PLANE('',#660);
#660 = AXIS2_PLACEMENT_3D('',#661,#662,#663);
#661 = CARTESIAN_POINT('',(-46.66704900006,11.200714113731,37.43));
#662 = DIRECTION('',(-0.927180282658,-0.37461543408,0.));
#663 = DIRECTION('',(0.37461543408,-0.927180282658,0.));
#664 = ADVANCED_FACE('',(#665),#690,.T.);
#665 = FACE_BOUND('',#666,.T.);
#666 = EDGE_LOOP('',(#667,#668,#676,#684));
#667 = ORIENTED_EDGE('',*,*,#646,.T.);
#668 = ORIENTED_EDGE('',*,*,#669,.T.);
#669 = EDGE_CURVE('',#639,#670,#672,.T.);
#670 = VERTEX_POINT('',#671);
#671 = CARTESIAN_POINT('',(-39.93887570664,0.2,32.68));
#672 = LINE('',#673,#674);
#673 = CARTESIAN_POINT('',(-42.94380873825,1.985624065904,32.68));
#674 = VECTOR('',#675,1.);
#675 = DIRECTION('',(0.85967320323,-0.510844383005,0.));
#676 = ORIENTED_EDGE('',*,*,#677,.F.);
#677 = EDGE_CURVE('',#678,#670,#680,.T.);
#678 = VERTEX_POINT('',#679);
#679 = CARTESIAN_POINT('',(-39.93887570664,0.2,37.43));
#680 = LINE('',#681,#682);
#681 = CARTESIAN_POINT('',(-39.93887570664,0.2,37.43));
#682 = VECTOR('',#683,1.);
#683 = DIRECTION('',(-0.,-0.,-1.));
#684 = ORIENTED_EDGE('',*,*,#685,.F.);
#685 = EDGE_CURVE('',#647,#678,#686,.T.);
#686 = LINE('',#687,#688);
#687 = CARTESIAN_POINT('',(-42.94380873825,1.985624065904,37.43));
#688 = VECTOR('',#689,1.);
#689 = DIRECTION('',(0.85967320323,-0.510844383005,0.));
#690 = PLANE('',#691);
#691 = AXIS2_PLACEMENT_3D('',#692,#693,#694);
#692 = CARTESIAN_POINT('',(-42.94380873825,1.985624065904,37.43));
#693 = DIRECTION('',(-0.510844383005,-0.85967320323,0.));
#694 = DIRECTION('',(0.85967320323,-0.510844383005,0.));
#695 = ADVANCED_FACE('',(#696),#721,.T.);
#696 = FACE_BOUND('',#697,.T.);
#697 = EDGE_LOOP('',(#698,#699,#707,#715));
#698 = ORIENTED_EDGE('',*,*,#677,.T.);
#699 = ORIENTED_EDGE('',*,*,#700,.T.);
#700 = EDGE_CURVE('',#670,#701,#703,.T.);
#701 = VERTEX_POINT('',#702);
#702 = CARTESIAN_POINT('',(-26.,0.2,32.68));
#703 = LINE('',#704,#705);
#704 = CARTESIAN_POINT('',(-39.93887570664,0.2,32.68));
#705 = VECTOR('',#706,1.);
#706 = DIRECTION('',(1.,0.,0.));
#707 = ORIENTED_EDGE('',*,*,#708,.F.);
#708 = EDGE_CURVE('',#709,#701,#711,.T.);
#709 = VERTEX_POINT('',#710);
#710 = CARTESIAN_POINT('',(-26.,0.2,37.43));
#711 = LINE('',#712,#713);
#712 = CARTESIAN_POINT('',(-26.,0.2,37.43));
#713 = VECTOR('',#714,1.);
#714 = DIRECTION('',(-0.,-0.,-1.));
#715 = ORIENTED_EDGE('',*,*,#716,.F.);
#716 = EDGE_CURVE('',#678,#709,#717,.T.);
#717 = LINE('',#718,#719);
#718 = CARTESIAN_POINT('',(-39.93887570664,0.2,37.43));
#719 = VECTOR('',#720,1.);
#720 = DIRECTION('',(1.,0.,0.));
#721 = PLANE('',#722);
#722 = AXIS2_PLACEMENT_3D('',#723,#724,#725);
#723 = CARTESIAN_POINT('',(-39.93887570664,0.2,37.43));
#724 = DIRECTION('',(0.,-1.,0.));
#725 = DIRECTION('',(1.,0.,0.));
#726 = ADVANCED_FACE('',(#727),#752,.T.);
#727 = FACE_BOUND('',#728,.T.);
#728 = EDGE_LOOP('',(#729,#730,#738,#746));
#729 = ORIENTED_EDGE('',*,*,#708,.T.);
#730 = ORIENTED_EDGE('',*,*,#731,.T.);
#731 = EDGE_CURVE('',#701,#732,#734,.T.);
#732 = VERTEX_POINT('',#733);
#733 = CARTESIAN_POINT('',(-26.,-4.8,32.68));
#734 = LINE('',#735,#736);
#735 = CARTESIAN_POINT('',(-26.,0.2,32.68));
#736 = VECTOR('',#737,1.);
#737 = DIRECTION('',(0.,-1.,0.));
#738 = ORIENTED_EDGE('',*,*,#739,.F.);
#739 = EDGE_CURVE('',#740,#732,#742,.T.);
#740 = VERTEX_POINT('',#741);
#741 = CARTESIAN_POINT('',(-26.,-4.8,37.43));
#742 = LINE('',#743,#744);
#743 = CARTESIAN_POINT('',(-26.,-4.8,37.43));
#744 = VECTOR('',#745,1.);
#745 = DIRECTION('',(-0.,-0.,-1.));
#746 = ORIENTED_EDGE('',*,*,#747,.F.);
#747 = EDGE_CURVE('',#709,#740,#748,.T.);
#748 = LINE('',#749,#750);
#749 = CARTESIAN_POINT('',(-26.,0.2,37.43));
#750 = VECTOR('',#751,1.);
#751 = DIRECTION('',(0.,-1.,0.));
#752 = PLANE('',#753);
#753 = AXIS2_PLACEMENT_3D('',#754,#755,#756);
#754 = CARTESIAN_POINT('',(-26.,0.2,37.43));
#755 = DIRECTION('',(-1.,0.,0.));
#756 = DIRECTION('',(0.,-1.,0.));
#757 = ADVANCED_FACE('',(#758),#783,.T.);
#758 = FACE_BOUND('',#759,.T.);
#759 = EDGE_LOOP('',(#760,#761,#769,#777));
#760 = ORIENTED_EDGE('',*,*,#739,.T.);
#761 = ORIENTED_EDGE('',*,*,#762,.T.);
#762 = EDGE_CURVE('',#732,#763,#765,.T.);
#763 = VERTEX_POINT('',#764);
#764 = CARTESIAN_POINT('',(-10.,-4.8,32.68));
#765 = LINE('',#766,#767);
#766 = CARTESIAN_POINT('',(-26.,-4.8,32.68));
#767 = VECTOR('',#768,1.);
#768 = DIRECTION('',(1.,0.,0.));
#769 = ORIENTED_EDGE('',*,*,#770,.F.);
#770 = EDGE_CURVE('',#771,#763,#773,.T.);
#771 = VERTEX_POINT('',#772);
#772 = CARTESIAN_POINT('',(-10.,-4.8,37.43));
#773 = LINE('',#774,#775);
#774 = CARTESIAN_POINT('',(-10.,-4.8,37.43));
#775 = VECTOR('',#776,1.);
#776 = DIRECTION('',(-0.,-0.,-1.));
#777 = ORIENTED_EDGE('',*,*,#778,.F.);
#778 = EDGE_CURVE('',#740,#771,#779,.T.);
#779 = LINE('',#780,#781);
#780 = CARTESIAN_POINT('',(-26.,-4.8,37.43));
#781 = VECTOR('',#782,1.);
#782 = DIRECTION('',(1.,0.,0.));
#783 = PLANE('',#784);
#784 = AXIS2_PLACEMENT_3D('',#785,#786,#787);
#785 = CARTESIAN_POINT('',(-26.,-4.8,37.43));
#786 = DIRECTION('',(0.,-1.,0.));
#787 = DIRECTION('',(1.,0.,0.));
#788 = ADVANCED_FACE('',(#789),#814,.T.);
#789 = FACE_BOUND('',#790,.T.);
#790 = EDGE_LOOP('',(#791,#792,#800,#808));
#791 = ORIENTED_EDGE('',*,*,#770,.T.);
#792 = ORIENTED_EDGE('',*,*,#793,.T.);
#793 = EDGE_CURVE('',#763,#794,#796,.T.);
#794 = VERTEX_POINT('',#795);
#795 = CARTESIAN_POINT('',(-10.,0.2,32.68));
#796 = LINE('',#797,#798);
#797 = CARTESIAN_POINT('',(-10.,-4.8,32.68));
#798 = VECTOR('',#799,1.);
#799 = DIRECTION('',(0.,1.,0.));
#800 = ORIENTED_EDGE('',*,*,#801,.F.);
#801 = EDGE_CURVE('',#802,#794,#804,.T.);
#802 = VERTEX_POINT('',#803);
#803 = CARTESIAN_POINT('',(-10.,0.2,37.43));
#804 = LINE('',#805,#806);
#805 = CARTESIAN_POINT('',(-10.,0.2,37.43));
#806 = VECTOR('',#807,1.);
#807 = DIRECTION('',(-0.,-0.,-1.));
#808 = ORIENTED_EDGE('',*,*,#809,.F.);
#809 = EDGE_CURVE('',#771,#802,#810,.T.);
#810 = LINE('',#811,#812);
#811 = CARTESIAN_POINT('',(-10.,-4.8,37.43));
#812 = VECTOR('',#813,1.);
#813 = DIRECTION('',(0.,1.,0.));
#814 = PLANE('',#815);
#815 = AXIS2_PLACEMENT_3D('',#816,#817,#818);
#816 = CARTESIAN_POINT('',(-10.,-4.8,37.43));
#817 = DIRECTION('',(1.,0.,0.));
#818 = DIRECTION('',(-0.,1.,0.));
#819 = ADVANCED_FACE('',(#820),#845,.T.);
#820 = FACE_BOUND('',#821,.T.);
#821 = EDGE_LOOP('',(#822,#823,#831,#839));
#822 = ORIENTED_EDGE('',*,*,#801,.T.);
#823 = ORIENTED_EDGE('',*,*,#824,.T.);
#824 = EDGE_CURVE('',#794,#825,#827,.T.);
#825 = VERTEX_POINT('',#826);
#826 = CARTESIAN_POINT('',(10.,0.2,32.68));
#827 = LINE('',#828,#829);
#828 = CARTESIAN_POINT('',(-10.,0.2,32.68));
#829 = VECTOR('',#830,1.);
#830 = DIRECTION('',(1.,0.,0.));
#831 = ORIENTED_EDGE('',*,*,#832,.F.);
#832 = EDGE_CURVE('',#833,#825,#835,.T.);
#833 = VERTEX_POINT('',#834);
#834 = CARTESIAN_POINT('',(10.,0.2,37.43));
#835 = LINE('',#836,#837);
#836 = CARTESIAN_POINT('',(10.,0.2,37.43));
#837 = VECTOR('',#838,1.);
#838 = DIRECTION('',(-0.,-0.,-1.));
#839 = ORIENTED_EDGE('',*,*,#840,.F.);
#840 = EDGE_CURVE('',#802,#833,#841,.T.);
#841 = LINE('',#842,#843);
#842 = CARTESIAN_POINT('',(-10.,0.2,37.43));
#843 = VECTOR('',#844,1.);
#844 = DIRECTION('',(1.,0.,0.));
#845 = PLANE('',#846);
#846 = AXIS2_PLACEMENT_3D('',#847,#848,#849);
#847 = CARTESIAN_POINT('',(-10.,0.2,37.43));
#848 = DIRECTION('',(0.,-1.,0.));
#849 = DIRECTION('',(1.,0.,0.));
#850 = ADVANCED_FACE('',(#851),#876,.T.);
#851 = FACE_BOUND('',#852,.T.);
#852 = EDGE_LOOP('',(#853,#854,#862,#870));
#853 = ORIENTED_EDGE('',*,*,#832,.T.);
#854 = ORIENTED_EDGE('',*,*,#855,.T.);
#855 = EDGE_CURVE('',#825,#856,#858,.T.);
#856 = VERTEX_POINT('',#857);
#857 = CARTESIAN_POINT('',(10.,-4.8,32.68));
#858 = LINE('',#859,#860);
#859 = CARTESIAN_POINT('',(10.,0.2,32.68));
#860 = VECTOR('',#861,1.);
#861 = DIRECTION('',(0.,-1.,0.));
#862 = ORIENTED_EDGE('',*,*,#863,.F.);
#863 = EDGE_CURVE('',#864,#856,#866,.T.);
#864 = VERTEX_POINT('',#865);
#865 = CARTESIAN_POINT('',(10.,-4.8,37.43));
#866 = LINE('',#867,#868);
#867 = CARTESIAN_POINT('',(10.,-4.8,37.43));
#868 = VECTOR('',#869,1.);
#869 = DIRECTION('',(-0.,-0.,-1.));
#870 = ORIENTED_EDGE('',*,*,#871,.F.);
#871 = EDGE_CURVE('',#833,#864,#872,.T.);
#872 = LINE('',#873,#874);
#873 = CARTESIAN_POINT('',(10.,0.2,37.43));
#874 = VECTOR('',#875,1.);
#875 = DIRECTION('',(0.,-1.,0.));
#876 = PLANE('',#877);
#877 = AXIS2_PLACEMENT_3D('',#878,#879,#880);
#878 = CARTESIAN_POINT('',(10.,0.2,37.43));
#879 = DIRECTION('',(-1.,0.,0.));
#880 = DIRECTION('',(0.,-1.,0.));
#881 = ADVANCED_FACE('',(#882),#907,.T.);
#882 = FACE_BOUND('',#883,.T.);
#883 = EDGE_LOOP('',(#884,#885,#893,#901));
#884 = ORIENTED_EDGE('',*,*,#863,.T.);
#885 = ORIENTED_EDGE('',*,*,#886,.T.);
#886 = EDGE_CURVE('',#856,#887,#889,.T.);
#887 = VERTEX_POINT('',#888);
#888 = CARTESIAN_POINT('',(26.,-4.8,32.68));
#889 = LINE('',#890,#891);
#890 = CARTESIAN_POINT('',(10.,-4.8,32.68));
#891 = VECTOR('',#892,1.);
#892 = DIRECTION('',(1.,0.,0.));
#893 = ORIENTED_EDGE('',*,*,#894,.F.);
#894 = EDGE_CURVE('',#895,#887,#897,.T.);
#895 = VERTEX_POINT('',#896);
#896 = CARTESIAN_POINT('',(26.,-4.8,37.43));
#897 = LINE('',#898,#899);
#898 = CARTESIAN_POINT('',(26.,-4.8,37.43));
#899 = VECTOR('',#900,1.);
#900 = DIRECTION('',(-0.,-0.,-1.));
#901 = ORIENTED_EDGE('',*,*,#902,.F.);
#902 = EDGE_CURVE('',#864,#895,#903,.T.);
#903 = LINE('',#904,#905);
#904 = CARTESIAN_POINT('',(10.,-4.8,37.43));
#905 = VECTOR('',#906,1.);
#906 = DIRECTION('',(1.,0.,0.));
#907 = PLANE('',#908);
#908 = AXIS2_PLACEMENT_3D('',#909,#910,#911);
#909 = CARTESIAN_POINT('',(10.,-4.8,37.43));
#910 = DIRECTION('',(0.,-1.,0.));
#911 = DIRECTION('',(1.,0.,0.));
#912 = ADVANCED_FACE('',(#913),#938,.T.);
#913 = FACE_BOUND('',#914,.T.);
#914 = EDGE_LOOP('',(#915,#916,#924,#932));
#915 = ORIENTED_EDGE('',*,*,#894,.T.);
#916 = ORIENTED_EDGE('',*,*,#917,.T.);
#917 = EDGE_CURVE('',#887,#918,#920,.T.);
#918 = VERTEX_POINT('',#919);
#919 = CARTESIAN_POINT('',(26.,0.2,32.68));
#920 = LINE('',#921,#922);
#921 = CARTESIAN_POINT('',(26.,-4.8,32.68));
#922 = VECTOR('',#923,1.);
#923 = DIRECTION('',(0.,1.,0.));
#924 = ORIENTED_EDGE('',*,*,#925,.F.);
#925 = EDGE_CURVE('',#926,#918,#928,.T.);
#926 = VERTEX_POINT('',#927);
#927 = CARTESIAN_POINT('',(26.,0.2,37.43));
#928 = LINE('',#929,#930);
#929 = CARTESIAN_POINT('',(26.,0.2,37.43));
#930 = VECTOR('',#931,1.);
#931 = DIRECTION('',(-0.,-0.,-1.));
#932 = ORIENTED_EDGE('',*,*,#933,.F.);
#933 = EDGE_CURVE('',#895,#926,#934,.T.);
#934 = LINE('',#935,#936);
#935 = CARTESIAN_POINT('',(26.,-4.8,37.43));
#936 = VECTOR('',#937,1.);
#937 = DIRECTION('',(0.,1.,0.));
#938 = PLANE('',#939);
#939 = AXIS2_PLACEMENT_3D('',#940,#941,#942);
#940 = CARTESIAN_POINT('',(26.,-4.8,37.43));
#941 = DIRECTION('',(1.,0.,0.));
#942 = DIRECTION('',(-0.,1.,0.));
#943 = ADVANCED_FACE('',(#944),#960,.T.);
#944 = FACE_BOUND('',#945,.T.);
#945 = EDGE_LOOP('',(#946,#947,#953,#954));
#946 = ORIENTED_EDGE('',*,*,#925,.T.);
#947 = ORIENTED_EDGE('',*,*,#948,.T.);
#948 = EDGE_CURVE('',#918,#42,#949,.T.);
#949 = LINE('',#950,#951);
#950 = CARTESIAN_POINT('',(26.,0.2,32.68));
#951 = VECTOR('',#952,1.);
#952 = DIRECTION('',(1.,0.,0.));
#953 = ORIENTED_EDGE('',*,*,#39,.F.);
#954 = ORIENTED_EDGE('',*,*,#955,.F.);
#955 = EDGE_CURVE('',#926,#40,#956,.T.);
#956 = LINE('',#957,#958);
#957 = CARTESIAN_POINT('',(26.,0.2,37.43));
#958 = VECTOR('',#959,1.);
#959 = DIRECTION('',(1.,0.,0.));
#960 = PLANE('',#961);
#961 = AXIS2_PLACEMENT_3D('',#962,#963,#964);
#962 = CARTESIAN_POINT('',(26.,0.2,37.43));
#963 = DIRECTION('',(0.,-1.,0.));
#964 = DIRECTION('',(1.,0.,0.));
#965 = ADVANCED_FACE('',(#966),#998,.T.);
#966 = FACE_BOUND('',#967,.T.);
#967 = EDGE_LOOP('',(#968,#969,#970,#971,#972,#973,#974,#975,#976,#977,
    #978,#979,#980,#981,#982,#983,#984,#985,#986,#987,#988,#989,#990,
    #991,#992,#993,#994,#995,#996,#997));
#968 = ORIENTED_EDGE('',*,*,#65,.T.);
#969 = ORIENTED_EDGE('',*,*,#96,.T.);
#970 = ORIENTED_EDGE('',*,*,#127,.T.);
#971 = ORIENTED_EDGE('',*,*,#158,.T.);
#972 = ORIENTED_EDGE('',*,*,#189,.T.);
#973 = ORIENTED_EDGE('',*,*,#220,.T.);
#974 = ORIENTED_EDGE('',*,*,#251,.T.);
#975 = ORIENTED_EDGE('',*,*,#282,.T.);
#976 = ORIENTED_EDGE('',*,*,#313,.T.);
#977 = ORIENTED_EDGE('',*,*,#344,.T.);
#978 = ORIENTED_EDGE('',*,*,#375,.T.);
#979 = ORIENTED_EDGE('',*,*,#406,.T.);
#980 = ORIENTED_EDGE('',*,*,#437,.T.);
#981 = ORIENTED_EDGE('',*,*,#468,.T.);
#982 = ORIENTED_EDGE('',*,*,#499,.T.);
#983 = ORIENTED_EDGE('',*,*,#530,.T.);
#984 = ORIENTED_EDGE('',*,*,#561,.T.);
#985 = ORIENTED_EDGE('',*,*,#592,.T.);
#986 = ORIENTED_EDGE('',*,*,#623,.T.);
#987 = ORIENTED_EDGE('',*,*,#654,.T.);
#988 = ORIENTED_EDGE('',*,*,#685,.T.);
#989 = ORIENTED_EDGE('',*,*,#716,.T.);
#990 = ORIENTED_EDGE('',*,*,#747,.T.);
#991 = ORIENTED_EDGE('',*,*,#778,.T.);
#992 = ORIENTED_EDGE('',*,*,#809,.T.);
#993 = ORIENTED_EDGE('',*,*,#840,.T.);
#994 = ORIENTED_EDGE('',*,*,#871,.T.);
#995 = ORIENTED_EDGE('',*,*,#902,.T.);
#996 = ORIENTED_EDGE('',*,*,#933,.T.);
#997 = ORIENTED_EDGE('',*,*,#955,.T.);
#998 = PLANE('',#999);
#999 = AXIS2_PLACEMENT_3D('',#1000,#1001,#1002);
#1000 = CARTESIAN_POINT('',(3.74E-15,29.932465909845,37.43));
#1001 = DIRECTION('',(0.,0.,1.));
#1002 = DIRECTION('',(1.,0.,0.));
#1003 = ADVANCED_FACE('',(#1004),#1036,.F.);
#1004 = FACE_BOUND('',#1005,.F.);
#1005 = EDGE_LOOP('',(#1006,#1007,#1008,#1009,#1010,#1011,#1012,#1013,
    #1014,#1015,#1016,#1017,#1018,#1019,#1020,#1021,#1022,#1023,#1024,
    #1025,#1026,#1027,#1028,#1029,#1030,#1031,#1032,#1033,#1034,#1035));
#1006 = ORIENTED_EDGE('',*,*,#49,.T.);
#1007 = ORIENTED_EDGE('',*,*,#80,.T.);
#1008 = ORIENTED_EDGE('',*,*,#111,.T.);
#1009 = ORIENTED_EDGE('',*,*,#142,.T.);
#1010 = ORIENTED_EDGE('',*,*,#173,.T.);
#1011 = ORIENTED_EDGE('',*,*,#204,.T.);
#1012 = ORIENTED_EDGE('',*,*,#235,.T.);
#1013 = ORIENTED_EDGE('',*,*,#266,.T.);
#1014 = ORIENTED_EDGE('',*,*,#297,.T.);
#1015 = ORIENTED_EDGE('',*,*,#328,.T.);
#1016 = ORIENTED_EDGE('',*,*,#359,.T.);
#1017 = ORIENTED_EDGE('',*,*,#390,.T.);
#1018 = ORIENTED_EDGE('',*,*,#421,.T.);
#1019 = ORIENTED_EDGE('',*,*,#452,.T.);
#1020 = ORIENTED_EDGE('',*,*,#483,.T.);
#1021 = ORIENTED_EDGE('',*,*,#514,.T.);
#1022 = ORIENTED_EDGE('',*,*,#545,.T.);
#1023 = ORIENTED_EDGE('',*,*,#576,.T.);
#1024 = ORIENTED_EDGE('',*,*,#607,.T.);
#1025 = ORIENTED_EDGE('',*,*,#638,.T.);
#1026 = ORIENTED_EDGE('',*,*,#669,.T.);
#1027 = ORIENTED_EDGE('',*,*,#700,.T.);
#1028 = ORIENTED_EDGE('',*,*,#731,.T.);
#1029 = ORIENTED_EDGE('',*,*,#762,.T.);
#1030 = ORIENTED_EDGE('',*,*,#793,.T.);
#1031 = ORIENTED_EDGE('',*,*,#824,.T.);
#1032 = ORIENTED_EDGE('',*,*,#855,.T.);
#1033 = ORIENTED_EDGE('',*,*,#886,.T.);
#1034 = ORIENTED_EDGE('',*,*,#917,.T.);
#1035 = ORIENTED_EDGE('',*,*,#948,.T.);
#1036 = PLANE('',#1037);
#1037 = AXIS2_PLACEMENT_3D('',#1038,#1039,#1040);
#1038 = CARTESIAN_POINT('',(3.74E-15,29.932465909845,32.68));
#1039 = DIRECTION('',(0.,0.,1.));
#1040 = DIRECTION('',(1.,0.,0.));
#1041 = ( GEOMETRIC_REPRESENTATION_CONTEXT(3) 
GLOBAL_UNCERTAINTY_ASSIGNED_CONTEXT((#1045)) 
GLOBAL_UNIT_ASSIGNED_CONTEXT((#1042,#1043,#1044)) REPRESENTATION_CONTEXT
('Context #1','3D Context with UNIT and UNCERTAINTY') );
#1042 = ( LENGTH_UNIT() NAMED_UNIT(*) SI_UNIT(.MILLI.,.METRE.) );
#1043 = ( NAMED_UNIT(*) PLANE_ANGLE_UNIT() SI_UNIT($,.RADIAN.) );
#1044 = ( NAMED_UNIT(*) SI_UNIT($,.STERADIAN.) SOLID_ANGLE_UNIT() );
#1045 = UNCERTAINTY_MEASURE_WITH_UNIT(LENGTH_MEASURE(1.E-07),#1042,
  'distance_accuracy_value','confusion accuracy');
#1046 = CONTEXT_DEPENDENT_SHAPE_REPRESENTATION(#1047,#1049);
#1047 = ( REPRESENTATION_RELATIONSHIP('','',#32,#10) 
REPRESENTATION_RELATIONSHIP_WITH_TRANSFORMATION(#1048) 
SHAPE_REPRESENTATION_RELATIONSHIP() );
#1048 = ITEM_DEFINED_TRANSFORMATION('','',#11,#15);
#1049 = PRODUCT_DEFINITION_SHAPE('Placement','Placement of an item',
  #1050);
#1050 = NEXT_ASSEMBLY_USAGE_OCCURRENCE('2','plate','',#5,#27,$);
#1051 = PRODUCT_RELATED_PRODUCT_CATEGORY('part',$,(#29));
#1052 = MECHANICAL_DESIGN_GEOMETRIC_PRESENTATION_REPRESENTATION('',(
    #1053),#1041);
#1053 = STYLED_ITEM('color',(#1054),#33);
#1054 = PRESENTATION_STYLE_ASSIGNMENT((#1055,#1061));
#1055 = SURFACE_STYLE_USAGE(.BOTH.,#1056);
#1056 = SURFACE_SIDE_STYLE('',(#1057));
#1057 = SURFACE_STYLE_FILL_AREA(#1058);
#1058 = FILL_AREA_STYLE('',(#1059));
#1059 = FILL_AREA_STYLE_COLOUR('',#1060);
#1060 = COLOUR_RGB('',0.921568637116,0.478431380801,0.121568629232);
#1061 = CURVE_STYLE('',#1062,POSITIVE_LENGTH_MEASURE(0.1),#1063);
#1062 = DRAUGHTING_PRE_DEFINED_CURVE_FONT('continuous');
#1063 = COLOUR_RGB('',0.399999997426,0.199999998682,5.098039223325E-02);
ENDSEC;
END-ISO-10303-21;
